<svg width="240" height="241" viewBox="0 0 240 241" fill="none" xmlns="http://www.w3.org/2000/svg">
<path d="M12.8164 198.572C21.6849 206.678 34.2669 210.02 46.3645 210.201C59.3114 210.394 72.0591 207.404 84.8098 205.144C116.527 199.523 149.388 198.422 180.802 205.546C188.931 207.389 197.003 209.784 205.325 210.235C213.648 210.683 222.473 208.944 228.741 203.448C236.997 196.208 239.066 184.287 239.689 173.324C240.535 158.423 239.652 143.42 237.064 128.722C236.181 123.698 234.921 118.381 231.207 114.888C225.558 109.57 216.754 110.469 209.042 109.644C197.3 108.389 186.175 102.124 179.011 92.7338C171.526 82.9203 168.548 70.4694 162.792 59.5519C155.739 46.1749 144.236 35.0642 130.327 29.124C116.42 23.1838 100.17 22.6041 86.1162 28.1856C71.2127 34.1013 59.6488 46.273 50.308 59.3097C33.3316 83.0092 22.292 110.19 7.91912 135.416C2.31653 145.245 -0.449499 157.871 0.0595487 169.193C0.513398 179.295 4.04606 189.458 11.0041 196.797C11.5867 197.413 12.1908 198.005 12.8133 198.572H12.8164Z" fill="#B2D4FB"/>
<path d="M161.569 22.975L158.076 20.1475C158.076 20.1475 146.675 35.7724 143.762 39.7652C144.225 40.9858 145.614 41.2955 146.46 41.6942C147.687 42.2677 143.32 47.4964 144.602 47.9503C145.028 47.4749 147.819 48.0239 151.223 43.9329C153.198 41.5593 161.566 22.978 161.566 22.978L161.569 22.975Z" fill="#A65F44"/>
<path d="M159.518 22.5547L158.417 24.9652C158.417 24.9652 161.937 23.6863 163.376 21.5887C164.694 19.6628 166.645 11.4134 165.838 10.6252C165.295 10.0916 165.084 10.5853 165.084 10.5853C165.084 10.5853 165.492 8.69317 165.384 7.82529C165.255 6.79488 164.713 6.65994 164.081 7.10768C164.145 6.32874 164.026 5.79819 163.575 5.77059C162.64 5.71846 161.983 7.59836 161.701 8.20557C161.211 9.26665 160.732 10.3369 160.229 11.3919C160.015 11.8427 159.8 12.2966 159.588 12.7504C159.527 12.8792 159.457 13.1522 159.365 13.33C159.638 11.4502 160.775 6.69061 159.435 6.87768C158.414 7.01875 157.095 15.6424 156.522 15.9276C155.948 16.2128 153.139 12.0328 152.729 13.7379C152.603 14.2593 153.376 14.9861 153.621 15.3541C154.179 16.1913 155.102 17.9792 155.528 18.89C155.881 19.6444 156.142 20.4448 156.703 21.0766C157.494 21.969 158.365 21.7328 159.233 22.5578C159.322 22.6437 159.447 22.6222 159.524 22.5547H159.518Z" fill="#A65F44"/>
<path d="M152.82 31.3804C153.038 30.3439 153.271 29.3042 153.36 28.2462C153.44 27.3017 153.4 26.3326 153.072 25.4371C152.725 24.4803 152.069 23.6922 151.406 22.9377C151.83 22.8427 152.228 22.6679 152.578 22.3673C152.983 22.0208 153.259 21.5148 153.283 20.9781C153.298 20.6776 153.21 20.4414 153.108 20.1654C153.019 19.917 153.044 19.7729 153.084 19.5184C153.102 19.3896 153.124 19.2914 153.084 19.1657C152.93 18.6689 152.28 18.3254 151.842 18.1291C151.449 17.9543 151.035 17.8409 150.612 17.7642C150.431 17.3533 149.974 17.0681 149.511 16.9577C149.137 16.8687 148.738 16.8657 148.361 16.9423C147.892 17.0374 147.503 17.2827 147.073 17.4821C146.626 17.6875 146.141 17.6967 145.681 17.8593C145.341 17.9789 145.022 18.169 144.752 18.4082C144.399 18.7179 144.194 19.089 144.028 19.4816C143.216 19.2822 142.354 19.1964 141.535 19.319C141.069 19.3896 140.695 19.5889 140.29 19.8128C139.806 20.0796 139.266 20.1256 138.775 20.3586C138.413 20.5304 138.137 20.8217 137.861 21.1008C137.466 21.4995 137.006 21.7356 136.558 22.0607C136.113 22.3857 135.804 22.8273 135.558 23.3119C135.197 23.8087 134.957 24.4128 134.752 24.9771C134.528 25.5997 134.353 26.2375 134.188 26.8754C134.022 27.5102 133.844 28.1481 133.768 28.8013C133.648 29.8317 133.847 30.8223 134.433 31.6718C134.433 31.6779 134.439 31.684 134.445 31.6871C134.473 31.727 134.5 31.7668 134.531 31.8067C134.568 31.8558 134.635 31.8404 134.663 31.8006C135.69 32.3188 136.669 32.88 137.579 33.5946C138.508 34.3214 139.389 35.1187 140.256 35.9161C141.992 37.5077 143.323 39.4581 145.123 40.9823C145.776 41.5374 146.558 42.2857 147.493 42.1292C148.374 41.982 148.975 41.1602 149.45 40.4794C150.701 38.7007 151.483 36.6429 152.06 34.5575C152.348 33.5056 152.587 32.4415 152.811 31.3743L152.82 31.3804Z" fill="#1A2154"/>
<path d="M117.009 185.744C120.137 191.868 123.032 197.535 124.053 199.541C124.304 200.041 124.445 200.311 124.445 200.311L126.788 202.902L128.576 199.05C128.576 199.05 128.416 198.483 128.144 197.489C127.702 195.886 126.181 190.166 124.261 183.192L117.006 185.744H117.009Z" fill="#DB9993"/>
<path d="M130.268 206.778H112.973C112.973 206.778 113.19 204.647 113.874 203.825C114.368 203.233 115.947 202.905 117.625 202.396C118.284 202.2 118.952 201.976 119.578 201.7C119.642 201.666 119.71 201.642 119.774 201.608C120.01 201.497 120.228 201.378 120.434 201.258C120.823 201.022 121.17 200.777 121.492 200.522C121.703 200.366 121.906 200.2 122.105 200.035C122.881 199.397 123.58 198.811 124.512 198.529C126.294 197.983 128.578 199.056 128.578 199.056C129.268 200.59 129.783 203.451 130.053 205.227C130.197 206.147 130.271 206.778 130.271 206.778H130.268Z" fill="#23276C"/>
<path d="M130.05 205.227C128.854 205.267 127.661 205.337 126.472 205.432C125.122 205.543 119.796 205.386 118.486 205.38C118.44 205.052 118.131 203.617 117.625 202.399C115.947 202.905 114.368 203.234 113.874 203.829C113.19 204.65 112.973 206.782 112.973 206.782H130.268C130.268 206.782 130.194 206.15 130.05 205.23V205.227Z" fill="#E5F1FE"/>
<path d="M104.248 68.6563C104.248 68.6563 107.225 68.184 101.632 65.5988C96.0415 63.0135 80.5738 56.1104 80.5738 56.1104C80.5738 56.1104 78.5683 58.6772 78.691 59.0053C78.8136 59.3335 83.8918 65.6938 83.8918 65.6938C83.8918 65.6938 100.022 75.7895 103.772 75.998C107.523 76.2065 108.55 72.7105 108.55 72.7105L104.248 68.6532V68.6563Z" fill="#FFB299"/>
<path d="M108.116 63.459L101.716 69.5464L101.637 74.9316C101.637 74.9316 104.145 77.1365 107.178 75.6492C110.211 74.1618 114.213 70.5216 114.213 70.5216L108.116 63.459Z" fill="#FFB299"/>
<path d="M139.52 114.381C139.468 114.317 139.41 114.249 139.349 114.185C139.125 113.927 138.876 113.679 138.597 113.428C137.938 112.83 137.162 112.268 136.242 111.75C136.19 111.716 136.138 111.686 136.086 111.658C135.488 111.324 134.828 111.008 134.111 110.71C131.894 109.79 129.434 109.723 127.104 110.198C126.386 110.342 125.69 110.566 125.006 110.824C124.822 110.888 124.638 110.962 124.448 111.042C122.528 111.805 120.658 112.738 118.573 112.857C117.962 112.891 117.953 113.832 118.573 113.811C118.947 113.805 119.324 113.765 119.686 113.707C117.245 116.635 115.193 119.871 113.378 123.259C113.267 123.471 113.148 123.686 113.034 123.91C111.329 127.166 109.845 130.549 108.468 133.904C107.895 135.299 107.325 136.707 106.773 138.121C106.687 138.345 106.601 138.569 106.515 138.792C105.969 140.234 105.457 141.675 105.003 143.129C104.359 145.208 103.2 147.082 102.51 149.143C102.044 150.538 101.93 151.918 102.05 153.307C102.068 153.531 102.096 153.755 102.13 153.979C102.222 154.663 102.366 155.346 102.55 156.046C103.485 159.56 104.887 164.059 106.444 168.368C106.53 168.598 106.616 168.834 106.702 169.064C107.892 172.293 109.161 175.378 110.385 177.829C111.385 179.834 112.384 181.843 113.378 183.849C113.522 184.137 113.666 184.428 113.813 184.723C114.325 185.756 114.841 186.79 115.353 187.82C116.135 189.387 116.926 190.957 117.72 192.512C118.248 193.533 118.726 195.241 119.787 195.842C120.544 196.269 121.615 196.177 122.476 196.112C122.541 196.106 122.608 196.106 122.666 196.1C122.896 196.088 123.133 196.06 123.363 196.036C124.138 195.95 124.908 195.793 125.659 195.582C125.911 195.517 126.159 195.438 126.402 195.352C126.671 195.26 126.941 195.162 127.205 195.054C127.717 194.843 128.652 194.594 128.895 193.996C129.25 193.128 128.527 191.549 128.343 190.693C127.849 188.458 127.147 186.161 126.527 183.852C126.429 183.484 126.331 183.116 126.245 182.748C125.739 180.742 125.344 178.742 125.258 176.761C125.172 174.722 124.822 172.207 124.322 169.61C124.264 169.288 124.197 168.96 124.132 168.628C123.35 164.807 122.277 160.897 121.265 158.103C121.311 157.984 121.357 157.861 121.415 157.729C121.495 157.512 121.593 157.282 121.697 157.039C122.927 154.065 125.288 149.066 127.619 145.527C127.757 145.309 127.901 145.101 128.039 144.895C128.867 143.699 129.683 142.712 130.434 142.098C131.624 141.123 134.243 137.599 136.356 134.407C136.791 133.757 137.205 133.125 137.573 132.524C137.745 132.26 137.901 132.006 138.045 131.754C138.631 130.794 139.085 129.979 139.315 129.433C139.683 128.577 140.026 127.715 140.342 126.848C140.52 126.329 140.692 125.814 140.842 125.296C142.013 121.367 142.157 117.5 139.52 114.394V114.381Z" fill="#0070F1"/>
<path d="M144.923 193.184C145.831 200.001 146.668 206.309 146.962 208.542C147.033 209.097 147.076 209.397 147.076 209.397L148.422 212.624L151.393 209.588C151.393 209.588 151.433 208.999 151.504 207.971C151.623 206.312 152.096 200.412 152.611 193.196L144.92 193.181L144.923 193.184Z" fill="#DB9993"/>
<path d="M159.676 116.39C159.148 120.395 158.486 124.345 158.234 128.384C158.176 129.279 158.13 130.165 158.096 131.061C158.084 131.312 158.069 131.561 158.063 131.812C157.891 135.918 157.879 140.028 157.851 144.14V144.846C157.833 147.483 157.811 150.123 157.741 152.761C157.713 153.788 157.676 154.812 157.636 155.84C157.63 156.091 157.618 156.34 157.603 156.582C157.413 161.378 157.109 166.175 156.805 170.965C156.778 171.36 156.753 171.753 156.726 172.149C156.606 173.946 156.49 175.746 156.376 177.543C156.14 181.272 155.895 184.998 155.606 188.721C155.588 189.037 155.56 189.359 155.533 189.675C155.533 189.709 155.527 189.739 155.527 189.773C155.244 193.324 155.428 199.537 155.159 203.089C154.423 203.291 153.684 203.484 152.935 203.647C152.672 203.711 152.408 203.766 152.147 203.825C151.905 203.871 151.66 203.923 151.417 203.969C150.451 204.153 149.498 204.251 148.544 204.297C148.256 204.309 147.958 204.325 147.67 204.325C146.52 204.343 145.373 204.297 144.223 204.245C143.987 203.54 143.815 202.816 143.65 202.199C143.202 200.522 142.478 194.232 141.834 188.602C141.801 188.313 141.77 188.022 141.736 187.74C141.316 184.035 140.927 180.738 140.691 179.423C140.415 177.89 140.133 174.363 139.881 170.937C139.853 170.628 139.835 170.324 139.817 170.023C139.593 166.963 139.397 164.135 139.237 163.096C138.967 161.253 138.783 159.397 138.639 157.542C138.612 157.306 138.599 157.07 138.581 156.83C138.323 153.371 138.201 149.903 137.943 146.443C137.931 146.305 137.925 146.174 137.909 146.036C137.897 145.806 137.876 145.582 137.857 145.352C137.535 141.675 136.989 138.028 136.358 134.397C136.253 133.747 136.134 133.1 136.023 132.45C135.971 132.18 135.925 131.91 135.879 131.64C135.714 130.733 135.545 129.819 135.379 128.911C134.729 125.36 133.972 121.701 133.564 118.043C133.524 117.721 133.49 117.405 133.466 117.083C133.401 116.387 133.346 115.687 133.316 114.991C132.81 114.911 132.304 114.773 131.795 114.571C131.286 114.369 131.491 113.571 132.025 113.761C132.439 113.906 132.853 113.998 133.267 114.065C133.248 113.4 133.248 112.731 133.267 112.066C133.273 111.875 133.595 111.814 133.622 112.02C133.733 112.737 133.834 113.439 133.938 114.157C134.254 114.175 134.564 114.185 134.873 114.163C134.999 114.163 135.125 114.157 135.241 114.145C136.373 114.059 137.492 113.777 138.602 113.433C138.826 113.369 139.056 113.295 139.28 113.222C141.497 112.504 143.714 111.793 145.959 111.149C148.01 110.569 150.077 110.023 152.156 109.535C153.696 109.174 155.413 108.707 156.94 109.391C159.67 110.621 160.013 113.853 159.685 116.393L159.676 116.39Z" fill="#197EF2"/>
<path d="M119.686 113.707C119.686 113.707 129.603 120.871 133.552 123.665C137.505 126.461 143.571 125.474 145.638 128.433C147.702 131.393 152.142 126.296 154.282 123.665C156.42 121.033 158.229 114.455 158.229 114.455L119.686 113.707Z" fill="white"/>
<path d="M164.75 88.618C164.145 93.6964 162.493 114.48 162.394 118.341C162.342 120.362 161.275 120.598 159.454 120.444C158.736 120.386 158.012 120.312 157.289 120.233C154.921 119.963 150.815 120.582 148.42 120.693C145.869 120.812 143.32 120.917 140.769 120.917C135.485 120.923 130.199 120.588 124.979 119.733C121.928 119.227 118.788 118.653 116.209 116.85C116.043 116.731 115.985 116.574 116.019 116.369C116.163 115.489 116.316 114.605 116.467 113.725C117.604 107.132 118.954 91.5467 120.435 80.758C120.895 77.4091 121.361 74.5264 121.842 72.5146C123.823 64.1977 124.434 68.4696 125.58 60.0883C125.936 57.4816 126.39 54.8902 127.055 52.351C127.285 51.4616 127.482 49.962 127.991 48.8304C128.175 48.766 128.346 48.6924 128.53 48.6249C130.294 47.9993 132.063 47.6037 133.845 47.2878C134.483 47.1836 134.97 47.11 135.265 47.0578C135.357 47.0456 135.442 47.0302 135.534 47.018C135.804 46.9781 136.068 46.9321 136.338 46.8984C136.589 46.8585 136.844 46.8186 137.095 46.7788C137.439 46.7788 137.779 46.7788 138.123 46.7849C138.255 46.7726 138.393 46.7665 138.524 46.7573C138.623 46.7512 138.721 46.7389 138.822 46.7389C139.263 46.7113 139.696 46.699 140.131 46.6868C140.711 46.6745 141.281 46.6806 141.757 46.6868C143.692 46.7266 145.633 46.883 147.558 47.0762C149.533 47.2725 151.517 47.4197 153.48 47.7141C153.823 47.7663 154.164 47.8184 154.507 47.8859C154.526 47.8859 154.547 47.8859 154.565 47.892C155.179 48.0024 155.789 48.1343 156.402 48.2876C157.706 48.6219 158.994 48.9991 160.263 49.4468C160.895 49.6768 161.52 49.9191 162.137 50.1828C162.493 50.3331 163.676 50.649 163.86 50.9863C163.998 51.2378 164.136 51.4984 164.262 51.7898C165.228 53.9948 165.375 56.4481 165.375 58.8218C165.381 62.051 165.255 65.2833 165.111 68.5065C164.802 75.2226 165.559 81.9356 164.756 88.6118L164.75 88.618Z" fill="#2041CA"/>
<path d="M142.066 60.4131C141.177 62.3666 139.579 63.9276 137.975 65.3015C135.994 67.0065 133.949 68.684 131.784 70.1499C129.423 71.7477 128.515 76.6422 126.068 78.0989C121.876 80.586 117.187 82.8553 112.391 84.1924C112.253 84.1924 110.082 77.047 108.555 71.9501C107.935 69.9169 106.936 64.5685 106.936 64.5685C106.936 64.5685 111.25 60.0083 112.658 58.7908C114.375 57.3096 116.356 55.6781 118.368 54.1723C118.631 53.9669 118.901 53.7706 119.165 53.5805C120.416 52.6666 121.658 51.811 122.857 51.0872C129.975 46.7724 136.868 46.0885 138.463 45.791C139.232 46.4688 138.613 46.7908 139.331 47.6402C140.83 49.4159 141.474 51.673 142.087 53.8718C142.713 56.0952 143.047 58.2388 142.069 60.4192L142.066 60.4131Z" fill="#2041CA"/>
<path d="M145.622 64.2188C143.004 67.6719 140.188 77.4608 140.188 77.4608C140.188 77.4608 137.294 68.9078 138.293 63.3938C139.075 59.0636 136.834 47.6892 137.11 47.1096C137.195 46.9317 137.76 46.8274 138.517 46.7661C138.615 46.76 138.713 46.7477 138.815 46.7477C139.222 46.7201 139.676 46.7017 140.124 46.6956C140.704 46.6833 141.274 46.6894 141.749 46.6956C143.684 46.7354 145.625 46.8918 147.551 47.085C149.894 47.315 152.243 47.4806 154.558 47.9008C154.586 47.9345 154.61 47.9652 154.632 48.005C155.368 49.4863 148.244 60.7626 145.625 64.2157L145.622 64.2188Z" fill="white"/>
<path d="M182.838 71.8617C182.305 73.0117 181.753 74.1648 181.213 75.3148C178.858 80.3228 176.325 85.2356 173.798 90.1516C173.679 90.3877 169.818 87.4406 168.036 86.1771C166.319 84.9596 158.318 80.4209 157.037 78.7557C154.543 75.5111 159.392 74.6647 158.472 70.7025C157.524 66.6115 157.358 62.3457 158.006 58.2025C158.493 55.0776 158.045 48.7233 155.914 48.3522C155.822 48.3338 155.816 48.2265 155.862 48.1621C158.993 48.9257 161.928 50.0113 164.795 51.4772C167.362 52.7928 169.425 54.8261 171.373 56.9053C173.832 59.5304 176.248 62.1893 178.702 64.8205C179.045 65.1885 179.386 65.5504 179.729 65.9184C180.342 66.5777 180.959 67.234 181.572 67.8934C181.624 67.9516 181.682 68.013 181.744 68.0712C182.29 68.6171 183.059 69.2366 183.295 69.9266C183.531 70.6105 183.124 71.2545 182.842 71.8617H182.838Z" fill="#2041CA"/>
<path d="M140.131 44.405C140.131 44.405 140.477 46.794 141.21 48.8517C141.775 50.4618 141.949 52.5349 143.596 52.6943C144.17 52.7495 146.288 52.6667 147.776 51.5443C149.787 50.0232 149.91 48.5267 149.68 47.0178L148.361 38.3789L142.333 42.798H142.327L140.134 44.4081L140.131 44.405Z" fill="#DB9993"/>
<path d="M139.644 122.76C139.644 122.76 139.312 111.548 138.957 106.341C138.601 101.133 137.834 96.9658 137.834 96.9658C137.834 96.9658 134.918 110.938 133.937 114.149C132.955 117.359 132.793 120.65 132.793 120.65L139.647 122.76H139.644Z" fill="white"/>
<path d="M149.676 47.0146C149.676 47.0146 148.223 48.9957 145.647 49.5416C143.071 50.0906 140.768 49.0479 140.768 49.0479L140.277 53.6265C140.277 53.6265 141.673 54.2306 142.412 54.476C143.151 54.7213 149.949 51.5442 149.949 51.5442C149.949 51.5442 150.854 48.7749 150.808 48.3579C150.762 47.9408 149.676 47.0146 149.676 47.0146Z" fill="white"/>
<path d="M121.369 202.981C121.363 203.107 121.212 203.184 121.12 203.086C120.654 202.586 120.271 202.074 119.777 201.604C120.013 201.494 120.231 201.374 120.437 201.255C120.903 201.715 121.424 202.328 121.372 202.978L121.369 202.981Z" fill="#FFE4D6"/>
<path d="M123.197 201.684C123.185 201.724 123.145 201.758 123.099 201.758C122.737 201.758 122.593 201.522 122.335 201.276C122.053 201.019 121.784 200.758 121.492 200.519C121.704 200.362 121.906 200.197 122.105 200.031C122.611 200.458 123.341 201.111 123.197 201.681V201.684Z" fill="#FFE4D6"/>
<path d="M145.087 221.376C145.047 221.983 145.482 222.498 146.028 222.498H154.912C155.366 222.498 155.752 222.133 155.844 221.639C155.994 220.738 156.138 219.192 155.734 217.358C155.712 217.288 155.703 217.217 155.681 217.134C154.933 214.098 152.931 209.09 152.931 209.09C151.87 206.278 146.85 207.33 146.295 209.415C145.97 210.63 145.596 214.819 145.335 218.137C145.234 219.422 145.154 220.575 145.093 221.376H145.087Z" fill="#23276C"/>
<path d="M145.087 221.376C145.047 221.983 145.482 222.498 146.028 222.498H154.912C155.366 222.498 155.752 222.133 155.844 221.639C155.994 220.738 156.138 219.192 155.734 217.358C154.338 216.702 152.882 216.285 151.919 216.153C149.702 215.85 146.841 216.417 145.332 218.137C145.231 219.422 145.151 220.575 145.09 221.376H145.087Z" fill="#E5F1FE"/>
<path d="M148.083 213.418C149.539 212.498 151.799 212.52 153.265 213.412C153.725 213.691 153.431 214.451 152.894 214.292C152.14 214.071 151.462 213.835 150.665 213.82C149.886 213.804 149.159 214.001 148.405 214.175C147.948 214.28 147.681 213.673 148.086 213.418H148.083Z" fill="#E5F1FE"/>
<path d="M147.723 210.805C149.18 209.885 151.44 209.906 152.906 210.799C153.366 211.078 153.071 211.838 152.535 211.679C151.78 211.458 151.103 211.222 150.305 211.206C149.526 211.191 148.8 211.387 148.045 211.562C147.588 211.666 147.321 211.059 147.726 210.805H147.723Z" fill="#E5F1FE"/>
<path d="M120.255 79.4607C118.756 74.3025 117.603 69.0339 116.609 63.7499C116.097 60.9991 115.576 58.2298 115.168 55.4483C115.432 55.2429 115.702 55.0466 115.965 54.8564C116.477 57.8496 116.959 60.8427 117.538 63.8235C118.544 69.0001 119.722 74.1461 120.841 79.3043C120.927 79.6846 120.369 79.844 120.255 79.4607Z" fill="#3A5194"/>
<path d="M169.219 72.7963C170.357 69.1131 171.412 64.9976 171.258 61.1121C171.249 60.8729 170.878 60.7993 170.823 61.0538C169.967 65.1295 169.526 69.1837 168.259 73.1765C167.103 76.8198 165.367 80.2974 165.052 84.1554C165.027 84.4559 165.536 84.5295 165.582 84.2259" fill="#23276C"/>
<path d="M189.738 220.345L185.77 202.273L193.626 197.428L195.245 220.968L193.016 223.36L189.738 220.345Z" fill="#FFB299"/>
<path d="M210.383 223.397L209.984 204.865L218.614 201.762L216.206 224.771L211.438 228.157L210.383 223.397Z" fill="#FFB299"/>
<path d="M216.58 229.191C216.552 229.602 216.619 230.558 216.604 231.439C216.601 232.147 216.54 232.822 216.331 233.101C216.236 233.147 216.107 233.202 216.012 233.248L196.733 234.284C195.804 234.334 195.055 233.469 195.233 232.518C195.243 232.478 195.249 232.435 195.258 232.395C195.534 230.991 196.147 229.602 197.288 228.838C198.729 227.89 203.948 226.102 204.565 225.609C205.785 224.655 206.77 223.422 207.978 222.459L208.144 222.321C209.41 221.325 210.643 221.248 211.728 222.447C212.866 223.704 214.528 224.315 216.218 224.164C216.442 224.453 216.613 224.811 216.705 225.287C216.929 226.513 216.644 227.949 216.573 229.191H216.58Z" fill="#FCB131"/>
<path d="M215.4 231.512C211.91 231.788 208.423 231.926 204.928 232.046C201.766 232.156 198.439 231.994 195.262 232.395C195.253 232.435 195.246 232.478 195.237 232.518C195.059 233.469 195.808 234.333 196.737 234.284L216.016 233.248C216.111 233.202 216.24 233.147 216.335 233.101C216.541 232.818 216.605 232.147 216.608 231.438C216.185 231.438 215.765 231.484 215.403 231.512H215.4Z" fill="#FEE8C1"/>
<path d="M209.002 130.769C206.898 125.841 202.535 124.357 197.659 124.44C195.895 124.47 193.246 124.262 192.335 126.249C191.829 127.353 191.961 128.727 192.026 129.948C189.348 135.983 187.098 142.233 184.957 148.492C183.835 151.77 182.758 155.064 181.728 158.376C180.768 161.455 179.447 164.733 179.045 167.972C176.926 174.378 179.351 182.131 180.642 188.421C182.473 197.336 184.537 206.232 187.177 214.929C187.223 215.08 187.358 215.202 187.515 215.196C190.523 215.086 193.501 214.813 196.472 214.307C196.659 214.276 196.739 214.046 196.705 213.877C196.018 210.259 196.585 206.649 196.705 203.006C196.828 199.409 195.616 196.063 195.616 192.512C195.616 189.043 196.132 185.627 195.991 182.146C195.889 179.647 195.601 177.172 195.156 174.719C197.812 168.604 200.646 166.205 202.584 161.924C205.046 156.478 207.321 152.537 208.686 146.71C209.897 141.54 211.173 135.857 208.999 130.766L209.002 130.769Z" fill="#1A2154"/>
<path d="M223.804 126.924C223.647 126.924 223.488 126.93 223.332 126.924C223.332 126.725 223.338 126.519 223.332 126.314C223.325 126.108 222.97 126.041 222.936 126.258C222.902 126.485 222.878 126.703 222.844 126.924C219.646 126.951 216.41 127.396 213.233 127.691C211.59 127.847 209.943 128.013 208.299 128.169C206.484 128.341 204.432 128.292 202.66 128.724C200.639 129.218 201.47 131.279 201.568 132.91C201.774 136.397 201.97 139.881 202.172 143.368C202.568 150.105 202.948 156.846 203.35 163.583C203.442 165.034 203.516 166.494 203.592 167.953C203.436 170.79 203.368 173.624 203.414 176.445C203.512 182.71 204.724 188.602 205.822 194.744C206.42 198.066 206.303 201.402 206.466 204.757C206.616 207.9 206.978 211.038 207.367 214.16C207.545 215.521 207.248 218.548 209.051 219.014C210.142 219.303 211.584 218.931 212.703 218.858C213.368 218.818 214.025 218.769 214.69 218.729C214.942 218.717 215.196 218.695 215.454 218.674C216.334 218.619 217.217 218.563 218.097 218.502C218.309 218.49 218.44 218.352 218.459 218.153C220.072 204.036 220.722 189.773 221.642 175.608C222.55 161.651 223.583 147.514 223.102 133.523C223.246 131.447 223.338 129.374 223.325 127.298C223.497 127.264 223.669 127.237 223.838 127.194C224.003 127.16 223.963 126.927 223.798 126.921L223.804 126.924Z" fill="#23276C"/>
<path d="M165.695 130.803L169.182 116.914L173.435 114.05L177.373 116.844L170.077 131.613L165.695 130.803Z" fill="#CF9F90"/>
<path d="M176.72 117.893C176.355 117.093 174.926 117.289 174.196 117.221C172.639 117.077 170.615 116.525 169.084 116.939C168.072 117.212 168.692 116.789 168.692 116.789C168.692 116.789 167.149 122.867 166.864 124.723C166.812 125.063 168.851 126.158 170.259 126.351C171.216 126.48 172.764 126.707 173.601 126.057C174.678 125.219 175.15 122.965 175.592 121.754C175.895 120.92 176.18 120.08 176.441 119.233C176.542 118.908 176.889 118.279 176.714 117.896L176.72 117.893Z" fill="#E0DBD1"/>
<path d="M166.693 129.654C166.693 129.654 162.39 132.491 160.971 135.999C159.551 139.507 159.511 142.81 162.004 142.893C164.497 142.976 172.01 134.242 172.032 132.981C172.05 131.721 169.33 129.421 169.33 129.421L166.69 129.654H166.693Z" fill="#CF9F90"/>
<path d="M199.496 70.2571C199.352 68.6777 195.175 62.1058 195.175 62.1058C195.083 61.934 193.36 60.2964 193.262 60.1308C193.158 59.9529 192.9 60.1247 192.964 60.2964C193.023 60.4467 193.096 60.5939 193.155 60.7441C191.787 61.1643 190.306 62.1395 189.03 62.9951C188.248 63.5348 186.341 64.7523 186.108 65.7705C186.034 66.0925 186.172 66.5341 186.417 67.0125V67.0186C186.595 67.3529 186.813 67.7148 187.037 68.046C187.156 68.2239 187.273 68.3956 187.386 68.5581C187.629 68.9016 187.84 69.196 187.966 69.3923C188.006 69.4567 188.046 69.518 188.086 69.5763C188.19 69.7664 188.309 69.9443 188.429 70.1283C188.687 70.5362 188.941 70.944 189.205 71.3458C189.981 72.551 190.784 73.7286 191.612 74.8909C191.698 75.0013 191.882 75.0626 192.008 75.0013C193.575 74.2193 196.678 72.9159 198.125 71.956C198.947 71.4163 199.591 71.2384 199.499 70.251L199.496 70.2571Z" fill="#EFB7A5"/>
<path d="M190.156 67.2853C189.144 66.9572 188.077 67.6993 187.387 68.561C187.629 68.9045 187.841 69.1989 187.966 69.3951C188.006 69.4595 188.046 69.5209 188.086 69.5791C188.19 69.7692 188.31 69.9471 188.429 70.1311C188.687 70.5389 188.941 70.9468 189.205 71.3485C189.619 71.0051 189.981 70.6064 190.232 70.2691C190.791 69.5178 191.462 67.7024 190.159 67.2823L190.156 67.2853Z" fill="#CF9F90"/>
<path d="M196.516 55.9754C196.372 58.3429 195.357 60.2504 194.318 62.2775C193.83 62.7375 194.06 64.1145 193.588 64.5806C191.343 66.7457 190.978 67.7393 187.979 68.7789C187.427 68.9691 186.697 69.1684 185.872 69.3309C183.781 69.7603 180.745 70.1007 178.807 68.9599C178.611 68.8433 178.427 68.7053 178.289 68.5244C177.577 67.5983 177.694 65.7092 177.694 64.5959V64.5223C177.688 64.3843 177.682 64.2341 177.682 64.0746V64.047C177.682 63.8293 177.688 63.5931 177.694 63.3417C177.7 63.1638 177.706 62.9522 177.722 62.6976C177.722 62.6394 177.728 62.5872 177.728 62.5198C177.734 62.4278 177.74 62.3296 177.746 62.21C177.902 58.993 178.482 51.9457 179.175 49.5445C179.279 49.155 180.984 47.729 182.34 46.3337C184.075 44.558 186.13 43.7607 188.602 44.0888C190.837 44.3863 193.008 45.5363 194.425 47.3058C196.299 49.6794 196.694 53.0283 196.516 55.9631V55.9754Z" fill="#EFB7A5"/>
<path d="M178.813 55.7246C178.813 55.7246 175.62 58.6349 175.467 59.7635C175.369 60.478 178.497 60.797 178.497 60.797L178.81 55.7246H178.813Z" fill="#EFB7A5"/>
<path d="M185.338 44.083C188.37 43.3685 190.719 43.3624 193.304 45.2545C194.27 45.9629 194.666 46.699 195.221 47.7386C195.902 49.0113 196.889 50.0263 197.404 51.3941C198.147 53.3599 198.711 55.9666 197.297 57.7207C197.377 57.7606 197.788 57.5061 197.742 57.6134C197.374 58.4629 195.175 62.1092 195.175 62.1092C195.175 62.1092 191.026 61.2045 189.827 58.6254C189.996 57.917 190.22 57.7943 190.005 57.1871C189.539 55.8654 188.637 55.5495 187.303 56.1383C187.3 56.1383 185.58 57.4723 185.847 55.4054C185.847 55.4054 185.84 55.3992 185.837 55.3962C185.77 53.9272 185.469 52.495 184.51 51.3082C183.212 49.7013 181.124 49.0082 179.1 49.0879C178.925 48.8426 178.818 48.6432 178.855 48.5696C180.216 45.8709 182.535 44.7455 185.338 44.0861V44.083Z" fill="#FEEFD6"/>
<path d="M179.907 54.4458C179.953 54.4396 180.003 54.4458 180.045 54.458C180.174 54.504 180.26 54.6451 180.294 54.7984C180.377 55.1756 180.288 55.7644 180.07 56.1048C179.917 56.344 179.616 56.4973 179.417 56.3532C179.251 56.2336 179.221 55.9729 179.236 55.7368C179.251 55.516 179.291 55.2952 179.362 55.0805C179.417 54.9088 179.494 54.7371 179.613 54.6083C179.696 54.5194 179.803 54.458 179.907 54.4458Z" fill="#383057"/>
<path d="M180.741 62.088C180.741 62.088 180.471 63.6734 177.868 64.0629C177.803 64.0752 177.742 64.0813 177.684 64.0813V64.0537C177.684 63.836 177.69 63.5998 177.696 63.3484C177.702 63.1705 177.708 62.9589 177.723 62.7044C177.723 62.6461 177.73 62.594 177.73 62.5265C177.736 62.4345 177.742 62.3364 177.748 62.2291L180.741 62.085V62.088Z" fill="white"/>
<path d="M182.654 53.4238C182.636 53.4023 182.618 53.3809 182.596 53.3625C182.191 52.9485 181.492 52.651 180.75 52.4916C180.422 52.421 180.069 52.375 179.738 52.4088C179.076 52.4762 178.637 52.973 179.284 53.2889C179.542 53.4146 179.873 53.4667 180.186 53.5188C180.741 53.6139 181.29 53.7274 181.826 53.8623C182.084 53.9267 182.397 53.9942 182.608 53.8991C182.734 53.8439 182.786 53.7396 182.771 53.6415C182.759 53.5648 182.713 53.4912 182.654 53.4238Z" fill="#383057"/>
<path d="M183.569 75.1615C183.296 74.7199 183.011 74.1678 182.676 73.668C181.631 74.5266 180.68 75.4773 179.907 76.6151C177.068 80.7858 174.249 92.0315 172.934 96.8431C170.536 105.617 167.156 114.79 168.171 117.528C169.187 120.267 170.597 119.221 171.91 119.675C173.247 120.138 174.485 120.227 175.66 119.362C176.985 118.387 178.092 116.995 179.088 115.697C181.434 112.655 183.176 109.193 184.752 105.706C186.405 102.047 187.767 98.2753 188.313 94.2794C188.874 90.17 188.914 85.392 187.27 81.5065C186.322 79.2647 184.85 77.2254 183.575 75.1615H183.569Z" fill="#CC1754"/>
<path d="M200.571 67.6288C200.669 66.8652 201.086 66.3163 200.467 65.5159C198.71 63.2557 194.107 66.9358 192.301 67.6748C190.789 68.2913 189.277 68.7145 187.728 68.9261C186.719 69.5823 185.815 70.3981 185.668 71.5205C185.579 72.2044 185.803 72.7625 186.25 73.2593C186.894 73.9739 187.186 73.5445 187.149 75.0687C187.137 75.5164 186.839 75.6514 186.913 76.1512C187.152 77.8042 189.51 77.979 190.792 77.8809C192.963 77.7153 194.959 76.6603 196.873 75.7035C198.434 74.9215 200.832 74.3848 201.148 72.4405C201.295 71.5236 201.347 70.5085 201.059 69.6069C200.85 68.9629 200.534 68.5458 200.559 67.8435C200.559 67.7699 200.568 67.6963 200.577 67.6258L200.571 67.6288Z" fill="#ED1A60"/>
<path d="M223.955 113.902C223.811 108.508 221.842 102.936 220.561 97.7838C219.055 91.7363 217.847 85.6795 215.363 79.9693C214.335 77.6018 211.051 72.4037 205.222 70.4839C202.517 69.5946 199.453 69.1622 196.623 69.3646C194.578 69.5148 192.327 69.7602 190.214 70.2447C189.984 70.2447 189.754 70.2447 189.524 70.2509C188.435 70.7354 187.282 70.9961 186.123 71.2383C183.765 72.7349 181.474 74.302 179.904 76.6112C179.104 77.7888 178.438 79.0707 177.85 80.4048C178.423 82.4717 179.288 84.4773 180.051 86.4492C180.821 88.4303 181.572 90.4176 182.354 92.3895C182.428 93.8032 182.551 95.2108 182.768 96.6001C182.998 98.0936 183.412 99.5411 184.096 100.89C184.28 101.252 184.486 101.608 184.7 101.964C185.406 103.148 186.2 104.301 186.608 105.628C187.135 107.306 186.304 109.115 186.556 110.839C186.767 112.305 187.886 128.798 188.426 130.659C188.73 131.705 189.064 133.119 189.714 134.014C190.272 134.796 190.898 134.811 191.873 134.962C197.111 135.796 202.456 135.054 207.641 134.219C210.027 133.836 212.459 133.229 214.872 133.079C216.982 132.944 218.981 133.401 221.076 132.87C221.781 132.692 224.311 132.723 224.805 132.091C225.286 131.478 225.133 130.208 225.173 129.518C225.396 125.63 224.673 117.929 223.955 113.902Z" fill="#ED1A60"/>
<path d="M182.583 86.983C182.739 83.1803 185.499 75.0167 185.643 71.5391C182.019 73.8851 180.792 75.3081 179.906 76.6145C178.495 78.6876 177.471 81.0735 176.637 83.5391C176.514 84.8302 176.536 86.0784 176.974 87.2069C177.744 89.188 177.523 92.359 178.305 94.334C178.379 95.7477 180.801 98.2624 181.019 99.6516C181.249 101.145 183.414 99.5443 184.101 100.894C184.285 101.256 184.49 101.611 184.705 101.967L185.652 101.571C185.652 101.571 182.356 92.3927 182.586 86.9861L182.583 86.983Z" fill="#CC1754"/>
<path d="M175.349 218.468H168.771V220.443H175.349V218.468Z" fill="#E9E9F0"/>
<path d="M177.412 220.18C177.819 218.456 176.751 216.728 175.027 216.321C173.303 215.914 171.575 216.982 171.168 218.706C170.762 220.43 171.829 222.158 173.553 222.565C175.278 222.972 177.005 221.904 177.412 220.18Z" fill="#23276C"/>
<path d="M174.294 217.975C175.112 217.975 175.775 218.637 175.775 219.456C175.775 220.275 175.112 220.937 174.294 220.937C173.475 220.937 172.812 220.275 172.812 219.456C172.812 218.637 173.475 217.975 174.294 217.975Z" fill="#E9E9F0"/>
<path d="M175.441 154.881H168.863V156.856H175.441V154.881Z" fill="#E9E9F0"/>
<path d="M177.498 156.598C177.905 154.874 176.837 153.146 175.113 152.739C173.389 152.332 171.661 153.4 171.254 155.124C170.847 156.848 171.915 158.576 173.639 158.983C175.364 159.39 177.091 158.322 177.498 156.598Z" fill="#23276C"/>
<path d="M174.383 157.349C175.201 157.349 175.865 156.686 175.865 155.868C175.865 155.05 175.201 154.387 174.383 154.387C173.565 154.387 172.902 155.05 172.902 155.868C172.902 156.686 173.565 157.349 174.383 157.349Z" fill="#E9E9F0"/>
<path d="M164.631 230.913C164.579 231.186 164.631 231.462 164.867 231.747C165.22 232.168 166.278 231.855 166.609 231.41C166.612 231.404 166.618 231.398 166.621 231.392C170.09 226.666 169.059 220.263 169.075 214.779C169.096 206.944 169.206 191.604 169.231 183.769C169.255 174.707 169.639 159.652 169.338 150.596C169.314 149.836 169.277 149.072 169.213 148.311C169.05 146.416 168.719 144.539 167.968 142.813C167.633 142.043 167.198 141.335 166.683 140.697C166.443 140.399 165.698 139.755 164.984 140.086C164.484 140.316 164.407 140.967 164.668 141.338C165.686 142.785 166.121 144.438 166.44 146.168C167.023 149.317 167.158 152.553 167.183 155.748C167.183 156.015 167.186 156.282 167.186 156.546C167.186 170.171 167.097 211.234 167.097 215.476C167.097 218.024 167.084 220.579 166.821 223.115C166.67 224.574 166.532 226.05 166.155 227.472C165.971 228.175 165.735 228.877 165.382 229.512C165.131 229.966 164.72 230.429 164.628 230.91L164.631 230.913Z" fill="#ED1A60"/>
<path d="M175.947 131.595C175.272 130.641 174.318 130.66 173.466 131.074C173.426 131.058 173.38 131.052 173.325 131.068C172.432 131.334 165.947 133.858 164.717 134.217C162.745 134.791 161.684 136.536 161.298 138.461C161.098 139.458 160.458 142.761 161.822 143.39C162.153 143.543 162.414 143.472 162.622 143.285C162.819 143.488 163.067 143.638 163.389 143.702C164.349 143.896 165.024 143.068 165.309 142.261C165.548 141.583 165.717 140.939 166.048 140.295C166.143 140.111 166.247 139.927 166.348 139.746C167.161 139.835 167.992 140.007 168.774 139.983C169.878 139.952 171.871 138.983 172.616 138.164C174.266 136.358 175.536 135.52 176.275 133.864C176.811 132.659 176.784 132.779 175.947 131.598V131.595Z" fill="#EFB7A5"/>
<path d="M171.057 132.573L178.659 119.662L182.716 117.853L186.169 121.226L175.745 134.539L171.057 132.573Z" fill="#EFB7A5"/>
<path d="M185.619 122.741C185.469 121.877 184.037 121.702 183.35 121.45C181.881 120.914 180.062 119.868 178.48 119.877C177.431 119.883 177.735 120.996 177.134 121.803C176.008 123.312 175.101 125.118 174.356 126.838C174.218 127.154 175.91 128.734 177.226 129.277C178.118 129.645 179.556 130.258 180.532 129.841C181.786 129.304 182.816 127.246 183.552 126.185C184.058 125.455 184.546 124.716 185.015 123.965C185.196 123.677 185.693 123.155 185.619 122.741Z" fill="white"/>
<path d="M213.271 84.2603C212.182 80.9145 208.625 78.0901 205.126 77.9337C196.344 77.5442 190.953 86.8885 188.125 94.2302C185.586 97.0086 184.329 100.376 182.694 103.847C181.756 105.841 177.766 114.145 176.997 115.225C176.111 116.467 174.703 118.785 174.976 120.411C175.197 121.732 177.601 122.183 178.65 122.564C180.468 123.226 183.709 124.833 185.654 124.155C187.469 123.523 190.551 120.981 191.738 119.549C195.043 115.565 197.693 111.91 201.002 107.926C204.399 103.835 205.847 99.6797 209.321 95.6562C210.704 94.0554 211.778 92.3656 212.458 90.3539C213.105 88.4494 213.924 86.2598 213.274 84.2542L213.271 84.2603Z" fill="#ED1A60"/>
<path d="M203.089 108.083C204.208 107.261 205.288 106.402 206.346 105.39C208.002 103.804 210.102 102.044 210.952 99.8515C211.065 99.5602 210.645 99.3516 210.446 99.5571C208.6 101.434 207.002 103.504 205.067 105.323C203.104 107.172 200.725 108.352 198.725 110.119C196.564 112.026 194.757 114.443 192.878 116.62C191.068 118.712 189.093 120.791 187.563 123.1C187.508 123.183 187.625 123.257 187.692 123.201C189.943 121.285 191.896 118.908 193.877 116.718C195.932 114.449 197.894 111.738 200.421 109.975C200.851 109.674 201.271 109.383 201.688 109.092L203.089 108.089V108.083Z" fill="#CC1754"/>
<path d="M197.489 224.792C197.462 224.697 197.431 224.593 197.403 224.492C197.106 223.498 196.732 222.388 196.305 221.486C195.726 220.275 194.84 220.069 193.628 219.953C192.199 219.208 190.485 218.68 189.36 219.542C188.71 220.042 188.526 220.83 188.332 221.609C188.182 222.219 188.023 222.842 187.891 223.464C187.179 224.292 186.489 225.136 185.772 225.958C185.198 226.608 184.429 227.696 183.659 228.095C183.521 228.163 183.362 228.199 183.205 228.224C182.54 228.347 181.868 228.497 181.258 228.8C180.178 229.334 179.599 230.245 179.587 231.361C179.581 231.634 179.614 231.922 179.679 232.223C179.89 233.167 180.798 233.161 181.58 233.146C183.699 233.112 185.842 233.063 187.922 232.585C190.059 232.085 191.908 231.002 193.671 229.674C194.487 229.058 195.309 228.435 196.118 227.813C196.631 227.414 197.308 227.019 197.56 226.353C197.756 225.813 197.633 225.332 197.486 224.792H197.489Z" fill="#FCB131"/>
<path d="M197.56 226.353C197.308 227.018 196.634 227.414 196.118 227.812C195.309 228.435 194.487 229.058 193.671 229.674C191.908 231.002 190.059 232.084 187.922 232.584C185.842 233.063 183.699 233.112 181.58 233.145C180.798 233.158 179.89 233.167 179.679 232.222C179.614 231.922 179.581 231.634 179.587 231.361C181.316 231.244 184.711 231.011 186.468 230.928C189.105 230.799 194.769 226.574 197.4 224.491C197.428 224.592 197.459 224.697 197.486 224.792C197.63 225.331 197.756 225.813 197.56 226.353Z" fill="#FEE8C1"/>
<path d="M122.607 55.0343C122.064 55.0251 121.506 55.3932 121.408 55.9268C121.252 56.7885 122.067 57.6043 121.521 58.4169C121.206 58.8892 120.736 59.1775 120.874 59.8154C121.092 60.809 122.027 60.8826 122.828 60.5176C123.846 60.0515 124.441 58.9812 124.517 57.8864C124.597 56.767 124.137 55.3778 122.932 55.0773C122.825 55.0497 122.717 55.0343 122.607 55.0343Z" fill="#FFD08F"/>
<path d="M93.2855 41.7956C93.3499 41.075 94.1595 40.1305 94.8525 40.8879C95.1622 41.2252 95.1193 41.7312 95.1653 42.1544C95.2358 42.7892 95.4536 43.4393 95.4352 44.0771C95.429 44.2488 95.1868 44.3899 95.061 44.2335C95.0549 44.2243 95.0518 44.2151 95.0426 44.2059C94.9046 44.5126 94.6409 44.6843 94.1717 44.534C93.1414 44.2059 93.2058 42.6389 93.2824 41.7956H93.2855Z" fill="#E68467"/>
<path d="M121.741 62.8206C121.741 62.8206 135.648 53.231 137.527 51.9828C139.407 50.7377 141.716 48.8118 141.716 48.8118L138.236 41.418L105.951 43.4205L121.738 62.8175L121.741 62.8206Z" fill="#FFF7EA"/>
<path d="M68.2109 161.391C68.2109 161.391 68.72 170.014 71.1487 176.918C73.5774 183.821 80.6734 206.361 80.6734 206.361L84.0006 208.388L84.5526 205.269C84.5526 205.269 81.9552 178.249 81.391 171.894C80.8237 165.54 77.8368 157.692 77.8368 157.692L74.528 158.597L68.2109 161.391Z" fill="#FFC7B3"/>
<path d="M39.0752 162.664C39.0752 162.664 37.0145 171.054 37.2936 178.365C37.5726 185.679 37.6922 209.308 37.6922 209.308L40.2712 212.228L41.7217 209.413C41.7217 209.413 47.2261 182.83 48.5631 176.593C49.9002 170.355 49.3635 161.977 49.3635 161.977L45.9351 161.866L39.0722 162.667L39.0752 162.664Z" fill="#FFC7B3"/>
<path d="M71.0164 52.4828C71.5622 52.6453 72.1019 52.8906 72.6324 53.1758C72.568 53.2126 72.5098 53.2648 72.4699 53.3537C70.2589 58.3064 72.5895 64.6913 74.4724 69.411C75.4046 71.7448 76.5086 74.005 77.7812 76.1731C78.6797 77.7034 79.9554 80.6199 81.7432 81.3129C85.3402 82.7052 86.9686 74.1307 87.3365 72.0699C87.7076 69.9906 88.2657 67.8347 87.1188 65.915C85.9259 63.9155 84.2179 62.054 82.6601 60.3366C80.9827 58.4904 79.1795 56.7762 77.1985 55.2612C75.4475 53.921 73.3684 52.3785 71.1513 51.989C70.8293 51.9338 70.6944 52.3877 71.0164 52.4828Z" fill="#E6A787"/>
<path d="M42.5277 55.7577C43.3649 57.4475 44.0211 57.8277 45.8733 57.4965C48.394 57.0426 50.5958 55.6872 53.0705 55.0064C55.7997 54.2581 58.4584 53.3687 61.1325 52.4579C61.1355 52.8597 61.0987 53.2675 61.019 53.6693C60.9117 54.2151 61.6476 54.4053 61.8439 53.8962C62.5277 52.1267 62.2916 50.1395 60.9301 48.738C59.6421 47.4101 57.8482 47.2629 56.1033 47.4898C51.6047 48.0756 47.9371 43.4203 43.1441 49.8205C42.1352 51.1668 41.8469 54.3715 42.5308 55.7546L42.5277 55.7577Z" fill="#FCB131"/>
<path d="M38.6276 68.5096C39.0539 69.0248 40.3142 70.2024 41.041 70.3527C41.5961 70.4662 41.6911 70.3374 42.0775 69.9387C43.1416 68.8439 43.9665 67.3534 44.8619 66.1206C48.137 61.6187 51.5991 57.0892 54.4878 52.3081C54.6902 52.4308 54.9754 52.4247 55.141 52.1671C56.3799 50.2197 57.1925 48.1313 57.5912 45.8558C57.6433 45.5614 57.3735 43.4269 57.0484 43.4239C52.3137 43.4116 48.9282 46.1348 46.4872 49.9253C45.0061 52.2284 43.6813 57.0493 42.4394 59.4843C41.7187 60.8949 40.9981 62.3087 40.2744 63.7194C39.6733 64.8939 38.7718 66.1329 38.3823 67.381C38.1983 67.9729 38.2198 68.0159 38.6276 68.5096Z" fill="#A65F44"/>
<path d="M64.754 54.2735C66.1524 64.1023 69.5562 73.5999 71.1968 83.3981C72.1199 88.912 72.7363 94.472 73.2024 100.041C73.647 105.334 73.598 110.756 74.3615 116.006C74.4137 116.368 74.9595 116.255 74.9718 115.924C74.9718 115.862 74.9718 115.804 74.9718 115.743C77.2012 116.316 79.3999 116.445 80.8319 114.304C82.5523 111.728 83.7513 108.432 84.5241 105.451C86.0328 99.6486 85.1006 93.7452 83.9353 87.9675C82.6412 81.558 81.2122 75.1547 79.3539 68.8833C78.4554 65.8565 77.4403 62.8634 76.2812 59.9285C75.7261 58.527 75.1374 57.1378 74.5118 55.7639C74.0089 54.6599 73.5704 53.4547 72.5829 52.6849C70.8289 51.3172 67.3882 50.5566 65.1956 50.7713C63.1134 50.9737 64.3216 53.0192 64.7571 54.2704L64.754 54.2735Z" fill="#FCB131"/>
<path d="M34.8809 198.443C36.8036 199.387 38.7784 200.182 40.8729 200.59C41.1121 200.645 41.3452 200.685 41.5843 200.718C41.9677 200.78 42.3571 200.829 42.7466 200.863C44.9269 201.047 47.2391 200.706 49.3887 199.989C49.6156 199.921 49.8395 199.838 50.0603 199.755C51.9002 199.072 53.596 198.115 54.9698 196.992C55.0097 196.842 55.2244 194.913 55.5249 192.095C55.5525 191.84 55.5801 191.573 55.6077 191.301C56.0309 187.332 56.5982 181.929 57.1134 177.191C57.141 176.918 57.1747 176.645 57.2023 176.369C57.5795 172.916 57.9199 169.892 58.1529 168.168C58.4074 166.301 58.6528 164.433 58.8981 162.565C58.938 162.292 58.9747 162.02 59.0085 161.744C59.5022 157.99 59.9867 154.233 60.459 150.47C60.4988 150.142 60.5418 149.814 60.5816 149.48C60.6215 149.158 60.6583 148.836 60.6981 148.517C60.7748 147.894 60.8545 147.266 60.9312 146.643C61.0201 145.849 61.1152 145.064 61.2103 144.269C62.2437 144.187 63.2403 143.776 64.056 143.052C65.9236 141.377 65.6353 138.967 65.5188 136.676C65.4973 136.299 65.485 135.916 65.4636 135.542C65.4513 135.287 65.436 135.036 65.4298 134.781C65.2581 131.067 65.1355 127.332 64.9177 123.606C64.8687 122.661 64.8073 121.717 64.7399 120.781C64.7276 120.515 64.7061 120.254 64.6847 119.993C64.6019 118.932 64.5129 117.874 64.4179 116.819C64.3688 116.301 64.3075 115.78 64.24 115.258C64.007 113.519 63.6451 111.778 63.0778 110.122C62.673 108.953 62.1762 107.825 61.5323 106.776C60.9435 105.797 60.2382 104.881 59.3979 104.062C58.0364 102.728 56.362 101.783 54.5681 101.292C52.3111 100.658 49.864 100.737 47.6254 101.67C43.6512 103.32 41.3727 106.997 40.8484 111.158C40.4804 114.038 40.5601 116.991 40.4375 119.892C40.4252 120.22 40.3485 121.143 40.232 122.572C40.2044 122.894 40.1707 123.25 40.1431 123.633C39.8701 126.829 39.4316 131.806 38.9256 137.82C38.9042 138.075 38.8858 138.332 38.8582 138.593C38.5914 141.795 38.3031 145.269 38.0087 148.915C37.9811 149.188 37.9597 149.461 37.9413 149.743C37.607 153.89 37.2636 158.238 36.9416 162.63C36.9201 162.89 36.9017 163.157 36.8803 163.415C36.5736 167.65 36.2731 171.916 35.9971 176.074C35.9848 176.363 35.9634 176.642 35.9419 176.93C35.6475 181.493 35.396 185.909 35.2028 190C35.1906 190.255 35.1752 190.5 35.1691 190.745C35.0403 193.481 34.9422 196.066 34.8809 198.44V198.443Z" fill="#23276C"/>
<path d="M54.5641 101.296C55.1253 102.93 55.9931 104.954 55.7938 106.521C55.5822 108.217 55.9655 109.99 56.1894 111.664C56.4501 113.593 56.7107 115.522 56.9683 117.451C56.9806 117.552 56.9959 117.656 57.0082 117.758C57.1523 118.859 57.3026 119.975 57.4467 121.076C57.459 121.159 57.4682 121.232 57.4804 121.315C57.508 121.499 57.5295 121.692 57.5571 121.876C57.9067 124.501 58.2685 127.114 58.6242 129.742C58.8972 131.754 59.1701 133.772 59.4461 135.781C59.4798 136.026 59.5135 136.265 59.5473 136.514C60.0042 139.893 60.4642 143.264 60.9211 146.643C61.0039 147.259 61.0867 147.867 61.1664 148.483H61.1725C61.2124 148.799 61.2553 149.112 61.2952 149.428C61.5221 151.102 61.7521 152.786 61.9791 154.463C62.2949 156.775 62.6077 159.088 62.9174 161.4C62.9573 161.661 62.9941 161.928 63.0186 162.185C63.6473 166.767 64.2636 171.352 64.8708 175.927C64.9107 176.194 64.9475 176.461 64.9812 176.728C65.6252 181.487 66.26 186.25 66.8978 191.009C66.9377 191.304 66.9745 191.592 67.0143 191.877C67.2535 193.65 67.4866 195.419 67.7258 197.192C70.0839 197.725 72.761 198.415 75.153 198.759C75.6099 198.826 76.0699 198.881 76.5421 198.931C76.7598 198.952 76.9867 198.97 77.2137 198.992C79.2713 199.157 81.3934 199.13 83.4449 198.835C83.8221 198.78 84.1901 198.719 84.5611 198.651C84.8402 198.596 85.1162 198.541 85.3891 198.474C85.6068 198.425 85.8276 198.372 86.0392 198.317C87.3394 197.974 88.6304 197.578 89.9092 197.155C89.9092 197.155 89.8877 196.548 89.8693 196.253C89.7589 194.557 89.624 192.862 89.486 191.156C89.4247 190.417 89.3633 189.678 89.302 188.933C89.2806 188.66 89.253 188.387 89.2346 188.111C89.0168 185.621 88.7838 183.131 88.5293 180.641C88.2901 178.246 88.0233 176.038 87.7442 173.875C87.7166 173.642 87.689 173.419 87.6553 173.192C87.1769 169.484 86.6495 165.893 86.0821 161.802C85.9441 160.824 85.8092 159.851 85.6651 158.873C85.6314 158.619 85.5976 158.361 85.5547 158.1C84.9935 154.181 84.4047 150.262 83.7761 146.349C83.7424 146.122 83.7086 145.892 83.6657 145.665C82.9205 141.013 82.1202 136.37 81.2646 131.739C81.2247 131.512 81.1818 131.294 81.1419 131.076C80.8353 129.427 80.5256 127.786 80.2036 126.145C80.2588 126.09 80.2925 126.016 80.2986 125.912C80.3385 124.661 79.6761 121.714 78.7531 118.291C78.6918 118.074 78.6304 117.853 78.5691 117.629C76.628 110.575 73.7393 101.903 73.7393 101.903C73.7393 101.903 72.1784 101.568 70.3599 101.225C70.1483 101.185 69.9368 101.142 69.716 101.102C68.0263 100.796 66.2692 100.501 65.4075 100.474C63.3406 100.406 57.2535 98.4006 55.1897 98.422C53.773 98.4343 54.0122 99.6733 54.5611 101.296H54.5641Z" fill="#23276C"/>
<path d="M49.7436 105.307C48.7439 105.282 47.7473 105.261 46.7476 105.236C45.7786 100.431 45.2082 95.429 44.5796 90.6358C43.7455 84.303 43.123 77.9365 42.7243 71.5516C42.5219 68.307 41.9638 64.6269 42.4821 61.4008C42.7366 59.8091 43.5216 58.2604 44.7973 57.6256C44.8157 57.5306 44.8648 57.4447 44.9506 57.3864C48.5385 54.976 52.8807 53.6512 56.9684 52.7956C61.1972 51.9093 61.8412 51.6854 66.1068 52.2926C66.5023 52.357 67.1862 54.608 67.3272 54.9515C68.0847 56.77 68.8084 58.607 69.4984 60.4562C71.1267 64.8232 72.1693 67.755 73.4634 72.2508C75.84 80.5033 75.8277 85.7995 76.9961 94.3465C77.9068 101.017 75.9719 102.777 74.9139 105.108C65.6069 105.12 59.0445 105.531 49.7406 105.31L49.7436 105.307Z" fill="white"/>
<path d="M74.9173 105.101C74.9173 105.101 61.0381 113.55 52.7185 113.093C44.3959 112.636 41.4336 102.718 41.4336 102.718L51.1515 95.9932L74.9173 105.101Z" fill="white"/>
<path d="M92.5861 153.771L87.9556 167.378L81.6507 170.822L78.1855 166.933L78.3266 150.14L92.5861 153.771Z" fill="#A65F44"/>
<path d="M122.714 152.182L122.254 166.549L116.973 171.655L111.518 166.466L107.24 152.786L122.714 152.182Z" fill="#A65F44"/>
<path d="M73.9746 161.922C73.9746 161.922 78.51 163.311 84.3242 163.311C90.1384 163.311 95.1031 161.922 95.1031 161.922C95.8483 159.125 102.647 132.509 102.647 132.509C102.647 132.509 102.101 128.844 102.908 126.099C103.386 124.477 103.987 122.447 103.803 120.717C103.625 118.96 102.352 117.353 101.525 115.924C98.4058 110.582 93.3521 103.832 86.9553 104.81C84.499 105.187 82.8247 106.991 81.9016 109.524C80.583 113.149 80.2733 117.39 79.6508 121.22C79.0896 124.655 78.5438 128.087 78.0102 131.527C77.9765 131.754 77.9427 131.984 77.909 132.211C77.7526 133.239 77.5931 134.263 77.4367 135.296C77.3969 135.591 77.3478 135.891 77.2988 136.192C76.8756 139.059 76.4646 141.924 76.0691 144.797C76.0353 145.036 76.0016 145.275 75.974 145.515C75.2288 150.973 74.5511 156.444 73.9777 161.925L73.9746 161.922Z" fill="#2041CA"/>
<path d="M97.0102 135.348C97.7339 138.624 98.8286 141.779 99.6443 145.021C100.405 148.051 101.717 158.352 102.512 161.921C102.512 161.921 106.124 163.311 113.217 163.311C120.316 163.311 123.183 161.921 123.183 161.921C123.177 161.688 123.171 161.504 123.177 161.376C123.26 157.99 123.422 153.626 123.471 149.556V148.857C123.493 146.907 123.471 145.048 123.404 143.42C123.355 142.402 123.315 141.212 123.281 139.924C123.275 139.629 123.269 139.335 123.254 139.028C123.232 138.072 123.205 137.066 123.177 136.032C123.177 135.793 123.171 135.56 123.165 135.321C123.048 130.573 122.932 125.443 122.72 122.1C122.404 117.169 121.632 119.165 120.77 114.295C120.831 113.967 120.859 113.639 120.853 113.256C120.853 113.112 120.785 112.955 120.662 112.888C119.2 112.038 117.538 111.636 116.136 110.658C114.959 109.836 114.057 108.68 112.785 108.012C110.521 106.816 107.743 106.693 105.296 107.021C100.754 107.637 98.0252 111.44 97.3628 116.411C96.9304 119.647 97.1972 123.005 97.4579 126.24C97.6971 129.298 96.3631 132.367 97.0194 135.351L97.0102 135.348Z" fill="#2041CA"/>
<path d="M78.5996 120.969C79.7496 121.819 82.0556 122.368 90.139 123.64C91.3626 123.83 92.5861 123.99 93.8189 124.119C94.1409 124.152 94.469 124.186 94.7971 124.214C96.8272 124.404 98.8726 124.53 100.918 124.631C107.717 124.965 123.638 124.796 124.411 123.564C125.055 122.539 124.589 114.725 124.524 107.589C124.512 106.151 124.616 103.378 124.638 102.225C124.733 96.4538 125.751 92.4089 125.923 85.4505C125.956 84.0429 126.008 80.0009 126.008 78.8325C126.008 78.4154 126.567 74.766 126.579 74.2692C126.606 73.0242 127.502 71.8496 127.591 70.2334C127.701 68.4486 127.836 66.4982 127.986 64.5294C128.554 57.068 129.32 49.3644 129.32 49.3644C129.32 49.3644 123.994 44.3442 120.544 43.6726C120.522 43.6113 120.483 43.55 120.394 43.5561C114.745 43.918 109.093 43.3384 103.445 43.8352C102.138 43.9517 100.826 44.0744 99.5196 44.197C99.4644 44.2032 99.4184 44.2032 99.3632 44.2093C99.1026 44.2369 98.8511 44.2584 98.5905 44.286C97.3516 44.4086 96.1158 44.5313 94.8769 44.6632C92.9541 44.8625 90.7738 44.8962 89.0504 45.9297C88.9891 45.8009 88.845 45.712 88.707 45.8071C86.7842 47.1963 86.312 50.6003 85.7263 52.8329C84.8094 56.2738 78.477 59.1749 78.477 59.1749C78.477 59.1749 78.3328 61.5884 78.109 65.4616C78.0752 66.1118 78.0323 66.8079 77.9924 67.5409C77.9035 69.1417 78.2746 70.8805 78.1734 72.788C78.1243 73.6498 77.971 78.6332 77.9158 79.5501C77.833 81.1172 78.6947 87.4653 78.5996 89.1367C77.6551 106.825 77.9096 120.454 78.5996 120.972V120.969Z" fill="#FFF7EA"/>
<path d="M65.5219 57.4697C66.2272 58.5921 67.5121 59.4661 68.5578 60.2604C71.1091 62.2108 73.9334 63.8178 76.9141 65.0016C77.2974 65.158 77.693 65.3082 78.1039 65.4585C83.1392 67.2985 89.6219 68.5559 93.5134 64.0907C95.5986 61.6956 97.1718 58.816 98.2175 55.8198C99.0792 53.345 99.395 50.7168 100.085 48.199C100.162 47.9261 100.235 47.6593 100.324 47.3863C100.57 46.6013 100.864 45.8254 101.235 45.074C101.284 44.9851 101.269 44.9023 101.235 44.8287C101.496 44.8502 101.762 44.8624 102.02 44.8778C102.164 44.8839 102.186 44.6784 102.054 44.6386C101.532 44.4944 100.658 44.3503 99.5177 44.2C99.4686 44.1939 99.4165 44.1878 99.3613 44.1786C99.1221 44.151 98.8614 44.1172 98.5946 44.0896C89.717 43.0623 69.076 42.1055 69.076 42.1055C69.076 42.1055 67.7421 42.1177 67.3036 42.9059C65.7028 45.7794 65.1754 49.76 64.9576 52.9954C64.8565 54.4858 64.6786 56.148 65.5188 57.4697H65.5219Z" fill="#FFF7EA"/>
<path d="M110.452 43.9267C110.52 44.0494 110.342 44.1537 110.262 44.0371C110.222 43.9819 110.18 43.9206 110.146 43.8654C109.919 44.8283 109.701 45.8005 109.44 46.7573C109.312 47.248 109.171 47.7356 109.017 48.214C106.766 49.2567 103.565 48.7476 101.826 47.2633C101.213 46.7389 100.71 46.1164 100.271 45.4478C100.52 44.6106 100.848 43.7887 101.053 43.0558C101.875 40.17 102.489 37.0358 103.749 34.3064C103.826 34.1562 104.092 34.1163 104.194 34.2512C104.994 35.2786 105.761 36.3366 106.49 37.4191C107.696 39.1917 108.809 41.0225 109.854 42.8779C109.992 42.5222 110.121 42.1603 110.25 41.8107C110.333 41.5991 110.655 41.6819 110.6 41.9058C110.471 42.4332 110.339 42.973 110.216 43.5127C110.293 43.6507 110.373 43.7856 110.449 43.9237L110.452 43.9267Z" fill="#A65F44"/>
<path d="M105.145 43.0769C105.817 44.6379 107.558 46.5791 109.441 46.757C109.702 45.8001 109.92 44.828 110.147 43.865C110.18 43.9202 110.223 43.9816 110.263 44.0368C110.346 44.1533 110.524 44.049 110.453 43.9264C110.377 43.7884 110.297 43.6534 110.22 43.5154C110.343 42.9757 110.475 42.436 110.604 41.9085C110.659 41.6815 110.337 41.6018 110.254 41.8134C110.125 42.163 109.993 42.5249 109.858 42.8806C108.813 41.0283 107.696 39.1944 106.494 37.4219C106.378 37.4556 106.255 37.5047 106.132 37.566C104.197 38.5106 104.431 41.4239 105.148 43.08L105.145 43.0769Z" fill="#884D35"/>
<path d="M102.639 36.5788C103.958 39.4646 105.862 42.5987 108.625 44.3161C110.91 45.7391 114.194 46.3279 115.89 43.7212C118.125 40.2803 119.202 35.6281 119.404 31.5739C119.438 31.0127 119.453 30.4576 119.444 29.924C119.438 28.6176 119.334 27.4124 119.15 26.382C118.478 22.6283 115.58 20.2884 111.633 20.5675C109.815 20.2393 107.763 20.6227 106.175 21.3004C103.673 22.3799 102.412 25.0019 101.894 27.5534C101.305 30.4668 101.388 33.8463 102.639 36.5818V36.5788Z" fill="#A65F44"/>
<path d="M101.068 33.469C101.129 34.4044 102.586 37.422 102.586 37.422C102.586 37.422 103.077 36.2475 102.963 35.4409C102.776 34.0946 102.387 31.8038 102.982 30.479C103.319 29.7307 104.073 29.1818 104.809 28.7494C105.251 29.4823 105.462 30.433 105.705 31.215C106.002 32.1749 106.542 31.9203 107.419 31.8069C107.591 31.7854 107.732 31.6781 107.735 31.491C107.753 30.0772 108.1 28.7923 108.587 27.5012C108.63 27.4951 108.67 27.492 108.713 27.4859C109.007 27.4307 109.007 27.0688 108.82 26.9093C108.82 26.9063 108.823 26.9001 108.826 26.8971C108.857 26.8235 108.738 26.7529 108.688 26.8173C108.682 26.8265 108.676 26.8357 108.67 26.8449C108.655 26.8449 108.642 26.8357 108.627 26.8357C107.885 26.8357 107.143 26.8173 106.398 26.8143C105.741 26.8143 105.14 26.9921 104.512 27.0657C103.914 26.6824 103.236 26.5475 102.635 27.1455C102.473 27.308 102.592 27.5993 102.822 27.5963C103.675 27.5901 104.233 27.952 104.631 28.4826C103.669 28.8598 102.923 29.4547 102.488 30.2705C102.476 30.2735 102.463 30.2705 102.451 30.2735C101.277 30.7949 100.985 32.2914 101.065 33.466L101.068 33.469Z" fill="#1A2154"/>
<path d="M117.324 32.0528C117.56 31.9516 117.815 31.927 118.06 31.9884C118.247 32.0344 119.342 32.7673 118.851 33.0218C118.658 33.1199 118.357 32.8869 118.161 32.8439C117.956 32.7979 116.57 33.0647 116.824 32.4729C116.864 32.384 116.928 32.3165 116.996 32.2582C117.097 32.1724 117.207 32.1018 117.324 32.0528Z" fill="#1A2154"/>
<path d="M111.882 31.3834C111.67 31.2393 111.422 31.1688 111.17 31.1811C110.977 31.1933 109.766 31.7085 110.201 32.0489C110.37 32.1838 110.71 32.009 110.913 32.0029C111.124 31.9968 112.434 32.515 112.293 31.8894C112.271 31.7944 112.219 31.7177 112.164 31.6472C112.081 31.5429 111.986 31.454 111.882 31.3834Z" fill="#1A2154"/>
<path d="M114.157 36.6676C114.865 36.0328 115.675 35.9102 115.38 34.6804C115.181 33.8524 114.822 33.0918 114.7 32.2393C114.678 32.086 114.871 31.9786 114.963 32.1289C115.506 32.9906 116.371 34.5025 116.119 35.5544C115.938 36.318 115.129 37.0939 114.316 37.0448C114.138 37.0326 114.01 36.8056 114.16 36.6707L114.157 36.6676Z" fill="#884D35"/>
<path d="M111.654 38.9953C111.951 39.6362 112.632 40.0931 113.313 40.2372C114.125 40.409 115.03 40.1667 115.573 39.5227C115.674 39.4001 115.665 39.1425 115.465 39.1149C115.067 39.0597 112.221 38.0354 111.822 38.0692C111.261 38.1182 111.497 38.6549 111.657 38.9953H111.654Z" fill="white"/>
<path d="M109.422 28.9578C109.763 28.7707 110.192 28.6818 110.615 28.6297C111.133 28.5653 111.673 28.553 112.179 28.6573C112.596 28.7462 113.136 28.9578 113.329 29.2675C113.547 29.614 113.17 29.982 112.716 30.0801C112.25 30.1813 111.765 30.0863 111.299 30.0341C110.781 29.9759 110.259 29.9421 109.735 29.936C109.533 29.936 109.312 29.9299 109.149 29.8379C108.987 29.7428 108.925 29.5711 108.968 29.4208C109.011 29.2706 109.137 29.1387 109.29 29.0375C109.33 29.0099 109.376 28.9823 109.419 28.9578H109.422Z" fill="#1A2154"/>
<path d="M116.484 30.5158C116.917 30.6845 117.414 30.663 117.886 30.6783C118.392 30.6937 118.904 30.7397 119.404 30.804C119.438 30.387 119.453 29.973 119.444 29.5774C119.278 29.5069 119.1 29.4517 118.922 29.3996C118.429 29.2616 117.91 29.1696 117.383 29.2002C116.951 29.2248 116.365 29.3536 116.098 29.6265C115.791 29.9362 116.064 30.3502 116.481 30.5127L116.484 30.5158Z" fill="#1A2154"/>
<path d="M100.345 29.3812C99.8142 30.335 100.041 31.6261 100.25 32.6381C100.326 33.0122 100.746 35.5208 101.363 35.1313C101.737 34.8952 102.013 34.0518 102.246 33.6746C102.568 33.1564 102.914 32.6504 103.282 32.1628C104.018 31.1967 104.853 30.3013 105.788 29.5254C107.649 27.9828 109.906 26.8205 112.338 26.7868C117.474 26.7163 119.443 28.219 119.443 28.219C119.664 28.3876 120.148 25.9864 120.145 25.8607C120.13 24.404 119.455 21.8678 117.784 21.5213C117.631 21.4906 117.456 21.4691 117.278 21.463C116.561 20.2486 115.263 19.669 113.942 19.255C113.126 19.0004 112.316 18.7397 111.482 18.5557C110.553 18.3503 109.557 18.3625 108.609 18.2951C107.677 18.2276 106.689 18.246 105.837 18.6784C105.386 18.9084 104.877 19.347 104.647 19.8407C102.841 19.9051 101.354 20.5982 100.636 22.4535C99.8755 24.4193 99.6455 27.2775 100.345 29.3812Z" fill="#ED1A60"/>
<path d="M111.88 178.531C112.008 180.426 112.475 183.134 113.119 186.17C115.247 196.293 119.288 210.109 119.288 210.109L121.34 212.611L122.941 209.765C122.941 209.765 123.379 195.161 123.398 185.044C123.404 181.453 123.358 178.429 123.226 176.816C122.72 170.661 122.254 166.543 122.254 166.543L111.515 166.46C111.515 166.46 111.303 170.318 111.877 178.524L111.88 178.531Z" fill="#A65F44"/>
<path d="M117.468 214.562C117.48 214.89 117.489 215.218 117.489 215.546C117.489 215.712 117.495 215.874 117.511 216.04C117.566 216.718 117.765 217.334 118.406 217.723C119.406 218.34 120.301 218.864 121.209 219.625C121.742 220.069 122.172 220.398 122.843 220.603C124.438 221.097 126.118 221.253 127.78 221.247C128.676 221.247 129.722 221.035 129.881 220.036C129.893 219.935 129.909 219.83 129.909 219.729C129.948 218.895 129.654 217.984 129.32 217.245C128.93 216.383 128.041 216.166 127.59 215.405C127.33 214.966 127.063 214.543 126.79 214.126C126.606 213.853 126.422 213.586 126.229 213.32C126.045 213.065 125.852 212.814 125.646 212.568C125.606 212.519 125.563 212.467 125.517 212.418C125.263 212.151 124.95 211.884 124.711 211.605C124.616 211.504 124.533 211.4 124.472 211.289C124.165 210.783 124.082 210.011 123.843 209.449C123.57 208.799 123.159 208.26 122.497 207.965C121.623 207.588 120.289 207.56 119.452 208.02C118.795 208.388 118.317 208.842 118.207 210.222C118.139 211.035 117.44 213.758 117.468 214.565V214.562Z" fill="#FCB131"/>
<path d="M117.51 216.04C117.565 216.718 117.764 217.334 118.405 217.724C119.405 218.34 120.3 218.864 121.208 219.625C121.742 220.07 122.171 220.398 122.842 220.603C124.437 221.097 126.118 221.253 127.78 221.247C128.675 221.247 129.721 221.036 129.88 220.036C129.892 219.935 129.908 219.83 129.908 219.729C127.651 220.803 123.738 220.269 121.88 218.907C120.362 217.8 119.138 216.718 117.51 216.04Z" fill="#1A2154"/>
<path d="M123.049 215.089C122.966 215.288 123.276 215.451 123.411 215.3C124.251 214.356 125.53 214.123 126.79 214.123C126.606 213.85 126.422 213.583 126.229 213.316C124.867 213.411 123.506 213.973 123.049 215.089Z" fill="#1A2154"/>
<path d="M121.586 213.378C121.503 213.577 121.813 213.74 121.948 213.584C122.831 212.599 124.199 212.394 125.517 212.415C125.263 212.148 124.95 211.882 124.711 211.603C123.371 211.713 122.037 212.28 121.586 213.381V213.378Z" fill="#1A2154"/>
<path d="M71.7511 210.452L73.9744 213.648L75.7376 211.023C75.7376 211.023 75.8266 210.762 75.983 210.284C77.0102 207.193 81.0428 195.045 83.8763 186.557C84.9434 183.37 85.8327 180.702 86.3387 179.218C88.3902 173.18 88.8349 164.792 88.8349 164.792L85.4433 164.286H78.5343C78.5343 164.286 75.5107 172.379 74.9434 179.675C74.8545 180.77 74.7257 182.226 74.5601 183.916C73.7996 191.795 72.3859 204.702 71.9136 209.005C71.8124 209.928 71.748 210.456 71.748 210.456L71.7511 210.452Z" fill="#A65F44"/>
<path d="M64.8302 219.376C64.8578 220.082 65.1645 220.765 65.9035 221.416C66.4586 221.909 67.1884 222.161 67.9152 222.311C69.5435 222.633 71.1903 222.372 72.4844 221.293C73.619 220.342 74.0452 218.975 74.6187 217.668C75.3792 217.414 76.1642 216.944 76.5138 216.322C76.6978 215.988 76.7867 215.561 76.8143 215.117C76.8757 214.356 76.7929 213.522 76.8205 212.899C76.8603 212.01 77.1884 210.382 76.4249 209.658C76.3635 209.596 76.3083 209.557 76.247 209.514C76.2133 209.302 76.1703 209.103 76.1244 208.919C75.9066 207.99 75.2565 207.284 74.3396 206.996C73.4503 206.723 72.4782 206.935 71.7545 207.517C71.0707 208.063 70.7916 208.974 70.3378 209.698C69.1142 211.682 67.9029 213.666 66.5199 215.546C65.787 216.536 65.0081 217.693 64.8517 218.843C64.8241 219.02 64.818 219.198 64.8302 219.376Z" fill="#FCB131"/>
<path d="M64.8301 219.376C64.8577 220.081 65.1643 220.765 65.9034 221.415C66.4584 221.909 67.1883 222.16 67.915 222.311C69.5434 222.633 71.1901 222.372 72.4842 221.293C73.6188 220.342 74.0451 218.974 74.6185 217.668C75.379 217.413 76.164 216.944 76.5136 216.321C76.6976 215.987 76.7866 215.561 76.8142 215.116C76.6363 215.349 76.437 215.561 76.2131 215.76C75.6673 216.239 75.0018 216.438 74.4345 216.867C73.5943 217.502 73.4348 218.496 72.8399 219.324C71.7451 220.836 69.8316 221.86 67.9365 221.642C66.0628 221.424 65.3115 220.581 64.8301 219.379V219.376Z" fill="#1A2154"/>
<path d="M69.5435 211.387C71.1289 210.676 72.9535 211.516 73.8581 212.908C74.036 213.181 73.6557 213.417 73.4349 213.236C72.3218 212.316 71.3067 211.712 69.8072 212.013C69.4545 212.083 69.1693 211.556 69.5435 211.387Z" fill="#1A2154"/>
<path d="M68.4771 213.562C70.0625 212.851 71.8871 213.691 72.7917 215.083C72.9695 215.356 72.5893 215.592 72.3685 215.411C71.2553 214.491 70.2403 213.887 68.7408 214.188C68.3881 214.258 68.1029 213.731 68.4771 213.562Z" fill="#1A2154"/>
<path d="M62.9305 54.5983C62.6637 55.5184 62.3816 56.4537 62.0167 57.34C61.9983 57.386 61.9768 57.4351 61.9584 57.4811C58.8765 59.5419 54.9943 57.0609 53.2188 53.6875C53.7861 51.5807 54.7152 48.195 55.3408 46.2538C55.4021 46.0483 56.1166 45.6803 56.3252 45.7907C58.0302 46.674 59.7444 47.5909 61.2255 48.7593C61.7591 49.1764 62.4644 49.71 62.9305 50.3203C63.0777 50.5104 63.2004 50.7159 63.2954 50.9091C63.4028 50.63 63.8627 50.7435 63.7984 51.0318C63.55 52.2278 63.2801 53.4269 62.9305 54.6014V54.5983Z" fill="#FFC7B3"/>
<path d="M58.5266 51.4522C58.7443 53.0131 60.8449 54.2429 62.4579 54.5496C62.6051 54.5772 62.7615 54.5986 62.9302 54.5986C63.2798 53.421 63.5496 52.225 63.798 51.029C63.8593 50.7407 63.4024 50.6242 63.2951 50.9063C63.2859 50.9124 63.2859 50.9186 63.2859 50.9186C63.2 50.7131 63.0774 50.5076 62.9302 50.3175C62.3813 50.0231 61.7741 49.79 61.0933 49.5999C60.4125 49.4159 59.6674 49.1491 59.0786 49.6674C58.5818 50.0998 58.4438 50.8726 58.5297 51.4522H58.5266Z" fill="#F2AA91"/>
<path d="M53.3781 44.8919C54.5955 46.6921 55.2517 48.2224 57.0242 49.4828C58.2692 50.3721 59.3916 51.1449 60.7869 51.7675C62.9672 52.7304 66.2729 52.2888 67.6467 50.2433C69.18 47.9801 69.5296 45.0299 69.5633 42.4171C69.5848 40.7672 69.2751 38.7799 68.9991 37.0994C68.9163 36.578 68.8151 36.0659 68.6832 35.5599C68.3275 34.1645 68.0515 31.9258 67.2113 30.736C66.3772 29.5461 64.2981 29.5675 62.9181 29.0953C61.6056 28.6445 60.1613 28.7334 58.8089 29.0462C57.2297 29.4142 55.6964 30.1195 54.574 31.291C53.1174 32.8091 52.5286 34.9374 52.2496 37.0381C52.222 37.265 52.1944 37.4889 52.1729 37.7158C51.9123 40.1784 51.9889 42.8403 53.3781 44.898V44.8919Z" fill="#FFC7B3"/>
<path d="M67.4811 37.79C67.5271 37.7747 67.5731 37.7686 67.616 37.7778C67.7479 37.7992 67.8552 37.9219 67.9135 38.066C68.0607 38.4217 68.0791 39.0136 67.9288 39.3877C67.8246 39.6514 67.5609 39.8569 67.3431 39.7526C67.1653 39.6668 67.0886 39.4153 67.061 39.1822C67.0365 38.9645 67.0365 38.7376 67.0641 38.5168C67.0855 38.3359 67.1285 38.1549 67.2235 38.0078C67.2879 37.9066 67.3799 37.8238 67.4781 37.7931L67.4811 37.79Z" fill="#383057"/>
<path d="M60.9686 38.1299C61.0208 38.1145 61.0729 38.1084 61.125 38.1176C61.2784 38.1421 61.401 38.274 61.4715 38.4273C61.6463 38.8106 61.677 39.4485 61.5114 39.8502C61.3949 40.1354 61.0944 40.3531 60.846 40.2427C60.6374 40.1507 60.5454 39.8778 60.5117 39.6263C60.478 39.3902 60.4749 39.148 60.5056 38.9088C60.5301 38.7156 60.5761 38.5193 60.6804 38.3599C60.7509 38.2495 60.8582 38.1636 60.9686 38.1299Z" fill="#383057"/>
<path d="M64.7575 38.7216C64.6686 38.4579 65.0672 38.2678 65.2052 38.5162C65.7572 39.5036 66.4349 40.8561 66.5024 41.9969C66.5545 42.8924 65.7326 43.5578 64.9629 43.8277C64.6716 43.9289 64.46 43.4842 64.736 43.3309C65.0304 43.1684 65.5517 43.0396 65.6253 42.6992C65.7418 42.1686 65.7449 41.4909 65.5487 40.9082C65.2972 40.1753 65.0059 39.4576 64.7605 38.7247L64.7575 38.7216Z" fill="#F2AA91"/>
<path d="M63.3986 46.5877C64.4014 47.4831 66.3947 47.6487 66.7289 45.9315C66.7504 45.818 66.6492 45.7076 66.5418 45.6953C66.2751 45.6647 64.6651 45.4071 64.0763 45.358C63.739 45.3273 63.0828 45.1556 62.7639 45.3365C62.3591 45.5665 63.0521 46.281 63.3956 46.5877H63.3986Z" fill="white"/>
<path d="M58.8693 36.7594C58.9276 36.4099 59.4795 36.0204 59.8077 35.8701C60.2646 35.6586 60.8135 35.5666 61.3532 35.5635C61.8745 35.5604 63.6961 35.9529 62.8129 36.5356C62.6657 36.6337 62.4756 36.6828 62.2854 36.7257C61.3471 36.9373 60.3658 37.0109 59.3937 37.0814C59.2005 37.0968 58.9521 37.0845 58.8908 36.9526C58.8632 36.8913 58.857 36.8269 58.8693 36.7625V36.7594Z" fill="#23276C"/>
<path d="M65.6113 36.3425C65.7677 36.4253 65.967 36.4529 66.1572 36.4774C67.0587 36.5847 67.9756 36.5694 68.8925 36.5449C68.8097 36.1738 68.7085 35.8089 68.5767 35.4501C68.5429 35.4348 68.5092 35.4195 68.4755 35.4103C67.991 35.2508 67.4359 35.2171 66.9023 35.2631C66.3841 35.306 64.6392 35.861 65.6082 36.3394L65.6113 36.3425Z" fill="#23276C"/>
<path d="M48.2905 40.6756C48.9468 41.338 49.9005 41.7152 50.802 41.6048C51.4889 43.2793 54.9909 47.3887 54.9909 47.3887C55.7392 45.2236 54.1906 41.5558 55.4663 39.6728C56.2544 38.5105 56.19 37.0446 55.917 35.6922C56.282 35.8179 56.6806 35.8547 57.0762 35.7873C57.9011 35.6493 58.1004 35.177 58.542 34.5882C59.4865 33.3247 59.4896 33.7326 60.4985 33.475C60.8205 33.3922 61.1578 33.2572 61.4276 33.0579C61.6699 32.88 61.8539 32.6715 61.9919 32.4446C63.381 33.1836 65.0584 33.6896 66.4568 33.6191C67.1253 33.5854 67.5914 33.2695 67.8459 32.834C68.6647 33.1346 69.6092 33.2756 70.2532 32.9904C71.0781 32.6255 71.3847 31.4111 70.9063 30.6781C70.569 30.1599 70.0324 29.8225 69.6828 29.295C69.3669 28.8197 69.1001 28.3106 68.6279 27.9702C68.1648 27.636 67.6343 27.5164 67.1038 27.544C67.1989 26.8785 66.9873 26.1915 66.331 25.7254C65.3651 25.0415 63.9453 25.4893 62.734 26.2007C62.642 25.7377 62.4365 25.2685 62.2035 24.9556C61.768 24.3699 61.1056 23.9191 60.3543 23.916C59.511 23.913 59.2749 24.4466 58.6309 24.8452C57.6098 25.477 56.101 24.925 54.9603 25.2378C53.8655 25.5383 52.8658 26.1854 52.1421 27.0594C51.2559 28.1266 50.6824 29.6661 50.7898 31.0952C49.5202 31.3804 48.3488 32.1256 47.76 33.3308C47.0854 34.7109 47.9655 35.7566 47.668 37.0508C47.3675 38.3664 47.2418 39.6176 48.2875 40.6756H48.2905Z" fill="#23276C"/>
<path d="M52.9128 42.0644C53.6089 43.2512 55.3047 44.7416 56.7123 43.7388C58.0401 42.7943 57.6384 40.301 56.3443 39.5129C56.332 39.5068 56.3228 39.5098 56.3105 39.5037C55.9058 38.5499 54.9858 37.7219 53.98 38.0838C52.4068 38.6542 52.1676 40.7856 52.9159 42.0613L52.9128 42.0644Z" fill="#FFC7B3"/>
<path d="M33.1075 102.893C33.2302 106.874 34.4016 110.692 36.1986 114.219C37.0941 115.97 38.1275 117.644 39.2008 119.288C40.0134 120.533 41.102 120.867 42.4421 121.407C43.0708 121.662 43.7086 121.892 44.3587 122.085C44.5703 122.152 44.7911 122.214 45.0088 122.275C45.2756 122.352 45.5424 122.419 45.8153 122.481C47.1431 122.787 47.1155 121.975 47.4007 120.785C47.9006 118.693 48.0079 116.531 48.3575 114.418C48.8144 111.545 49.2253 108.665 49.5749 105.779C50.2649 100.069 50.7034 94.3219 50.8414 88.5688C50.9794 82.7206 50.8475 76.8662 50.4366 71.0394C50.3354 69.5552 50.2465 68.0647 50.1361 66.5804C49.9797 64.3632 49.7926 62.149 49.4921 59.9471C49.3971 59.2479 48.8144 53.9088 47.919 54.1204C45.5669 54.6663 43.1045 55.3777 41.2768 57.0614C39.3265 58.8523 38.4464 61.7197 37.692 64.1823C35.846 70.2421 35.4565 76.6178 34.9352 82.8954C34.3802 89.5287 32.8959 96.2202 33.1014 102.896L33.1075 102.893Z" fill="#FCB131"/>
<path d="M20.7685 102.087C23.9086 105.126 28.4901 106.292 32.5655 107.344C36.1197 108.261 42.4153 110.067 42.5103 104.461C42.5502 102.17 41.8112 99.824 40.5539 97.9195C39.5021 96.331 38.024 95.1411 36.7483 93.7611C38.4502 91.9027 39.1157 89.3082 39.6799 86.8702C40.6091 82.8589 41.986 79.0132 43.1513 75.0725C44.2153 71.4814 44.9636 67.6787 44.4975 63.925C44.2981 62.3181 43.6726 58.1259 41.5996 57.537C42.0473 57.0954 42.4919 56.6538 42.9489 56.2276C43.1758 56.016 42.8814 55.6449 42.6207 55.8043C39.6124 57.6566 37.2604 60.4995 35.0065 63.1737C32.7587 65.8448 30.6581 68.6478 28.6863 71.5274C26.5704 74.6156 24.5925 77.805 22.7924 81.0925C21.5597 83.3434 20.4097 85.7017 19.2536 88.0049C16.9721 92.5497 16.923 98.3765 20.7624 102.093L20.7685 102.087Z" fill="#FCB131"/>
<path d="M30.4912 87.6891C32.325 87.9436 33.9963 88.8237 35.3732 90.0658C36.0509 88.8575 36.8206 87.8087 37.0475 86.398C37.253 85.1253 37.1518 83.9477 37.5964 82.721C38.3968 80.5068 39.4946 77.8694 40.8501 75.9558C40.985 75.7657 41.2978 75.8761 41.2364 76.1183C40.5526 78.8722 38.5747 81.2214 38.0288 84.0059C37.7866 85.2357 37.9583 86.493 37.5136 87.6891C37.1303 88.7195 36.4404 89.6149 35.8822 90.5534C37.6608 92.375 38.8507 94.8192 39.0868 97.2541C39.1267 97.6528 38.4704 97.7387 38.3876 97.3492C37.9399 95.2301 37.1641 93.2827 35.6952 91.6543C34.1711 89.9676 32.3557 89.2132 30.2858 88.4312C29.8135 88.2533 30.0037 87.6216 30.4912 87.6891Z" fill="#D99914"/>
<path d="M38.3828 67.3805L42.0749 69.9381C42.0749 69.9381 42.9704 68.6992 43.8259 67.5369C44.2093 67.0094 44.5772 66.4973 44.8594 66.1139C45.0771 65.8073 45.2979 65.5067 45.5095 65.2123C48.3276 61.3145 50.6122 57.8859 53.2188 53.6876C52.6637 52.5038 52.1792 52.2922 51.3022 51.958C50.0357 51.4796 49.0053 49.1673 47.6898 48.8115C47.3003 49.3175 46.7054 49.5291 46.3834 50.0842C44.8379 52.7584 43.9271 55.1719 42.6821 57.6069C42.3816 58.1957 41.5812 60.0081 40.7471 61.9095C40.3699 62.7712 39.9866 63.6606 39.6401 64.4548C38.9287 66.0955 38.3828 67.3835 38.3828 67.3835V67.3805Z" fill="#A65F44"/>
<path d="M37.6342 109.02C37.0822 108.855 36.5271 108.708 35.9629 108.594C36.4259 104.951 37.3643 101.252 38.9436 97.9189C39.468 98.1428 40.0077 98.3207 40.5474 98.3851C40.529 99.1978 39.9862 100.145 39.7348 100.884C38.8455 103.51 38.3241 106.3 37.6526 108.987C37.6495 109.002 37.6403 109.008 37.6342 109.02Z" fill="#D99914"/>
<path d="M28.9737 75.7409C28.6088 76.4003 28.7223 77.3019 29.2129 77.4307C28.8572 77.9122 28.4923 78.4979 28.5168 79.0714C28.5291 79.329 29.0289 79.5805 29.0289 79.5805C29.0289 79.5805 29.0933 80.2398 29.2221 80.3134C29.6238 80.5496 29.817 80.4422 30.0255 80.3594C31.3258 79.8473 34.0489 76.5628 34.5824 76.0108C34.1684 76.707 33.7177 77.3816 33.3006 78.0778C32.8621 78.8077 32.4267 79.5559 32.1047 80.3441C31.9544 80.7152 31.5128 81.9234 32.3193 81.7578C33.2914 81.5585 33.8281 80.338 34.38 79.6019C34.9535 78.8383 35.5423 78.087 36.1464 77.351C36.5542 76.8542 37.5509 75.2135 38.3727 74.9497C37.4895 76.3482 35.0087 80.6508 37.1062 79.8626C37.7502 79.6203 38.1519 78.5838 38.5199 78.0563C39.1823 77.1056 40.047 76.3175 40.7002 75.3607C41.6968 73.9009 42.0464 72.1314 41.979 70.4478C41.979 70.4355 41.9667 70.4294 41.9636 70.4171C42.6873 69.1414 42.6229 67.3688 41.3012 66.6972C39.5042 65.7833 36.9651 67.973 35.53 69.077C34.1378 70.1503 32.8989 71.377 31.7367 72.711C30.8934 73.6801 29.5901 74.6093 28.9676 75.7409H28.9737Z" fill="#A65F44"/>
<path d="M33.1238 221.247C34.4271 223.28 38.3737 223.375 40.37 222.793C43.0226 222.032 43.3047 220.122 43.1821 217.966C43.1269 216.991 42.9858 215.96 42.9398 214.957C42.8662 213.176 42.5381 208.453 42.443 208.284C41.6733 206.962 39.3397 205.641 37.8309 206.41C36.8282 206.916 36.4541 208.033 36.1167 209.026C35.1508 211.934 34.0744 214.828 33.3507 217.8C33.2188 218.334 32.995 218.972 32.8999 219.6C32.8049 220.192 32.8263 220.772 33.1238 221.25V221.247Z" fill="#ED1A60"/>
<path d="M33.1238 221.247C34.4271 223.28 38.3737 223.376 40.37 222.793C43.0226 222.032 43.3047 220.122 43.1821 217.966C42.0198 221.06 38.3829 221.845 35.2704 221.033C34.5497 220.845 33.7248 220.094 32.8999 219.597C32.8049 220.189 32.8263 220.769 33.1238 221.247Z" fill="#E5F1FE"/>
<path d="M80.4036 210.311C80.4465 210.651 80.4281 211.446 80.4772 212.176C80.5109 212.764 80.5937 213.319 80.7838 213.543C80.8666 213.577 80.9832 213.617 81.066 213.651H99.1954C99.1709 213.135 99.1034 212.574 98.9562 212.019C98.6588 210.866 98.07 209.741 97.0488 209.158C95.7639 208.437 91.1794 207.186 90.6244 206.803C89.5296 206.064 88.6281 205.085 87.5395 204.34L87.3892 204.233C86.2546 203.463 85.1844 203.454 84.2981 204.497C83.369 205.591 81.9614 206.171 80.4925 206.122C80.3116 206.37 80.1767 206.677 80.1184 207.076C79.9773 208.103 80.284 209.281 80.4005 210.308L80.4036 210.311Z" fill="#ED1A60"/>
<path d="M80.4766 212.176C80.5103 212.764 80.5931 213.319 80.7832 213.543C80.866 213.577 80.9825 213.617 81.0653 213.651H99.1948C99.1703 213.135 99.1028 212.574 98.9556 212.019C96.1957 211.829 93.3285 212.111 90.5931 212.16C87.5664 212.219 84.5489 212.258 81.5253 212.185C81.2095 212.176 80.8446 212.16 80.4796 212.176H80.4766Z" fill="#E5F1FE"/>
<path d="M76.592 55.3437C76.6318 55.681 76.6717 56.0183 76.7085 56.3526C77.055 59.3672 77.2666 62.4738 77.8861 65.4454C77.9167 65.5926 78.1314 65.5497 78.1375 65.4117C78.2939 62.3082 77.7174 59.1096 77.3801 56.0306C77.0336 52.9026 76.8588 49.7622 76.5337 46.6373C76.5061 46.3766 76.1412 46.3705 76.1228 46.6373C75.9511 49.2348 76.1994 51.8844 76.4938 54.4881L76.592 55.3467V55.3437Z" fill="#FEE8C1"/>
<path d="M86.8276 44.6752C87.1649 44.8715 87.5452 44.8991 87.8579 44.7519C88.0511 45.2763 88.4283 46.1258 89.3452 46.0185C89.5047 46.0001 89.6703 45.9418 89.8052 45.8682C89.842 45.8835 89.8757 45.8958 89.9248 45.9173C90.2989 46.0645 90.7528 46.0645 91.1392 45.9449C91.7249 45.7639 91.9947 45.4297 92.0806 45.0463C92.6142 45.5922 93.6169 45.4143 93.8162 44.6384C94.0401 43.7767 94.1382 42.4273 93.3195 41.7036C92.8963 41.3295 92.5191 41.3417 92.2523 41.5257C92.1327 41.3233 91.9702 41.1332 91.7187 40.9645C91.4397 40.7775 91.0441 40.6394 90.6577 40.6394C90.4553 40.6394 90.0199 40.8541 89.9003 40.7406C89.8451 40.7161 89.7929 40.6916 89.7377 40.664C88.5632 40.2162 87.6586 40.986 87.398 41.8263C87.03 41.8569 86.6681 42.0164 86.4657 42.2249C85.8432 42.869 85.9505 44.1662 86.8245 44.6722L86.8276 44.6752Z" fill="#FFB299"/>
<path d="M91.9756 41.8596C92.0032 41.6327 92.2976 41.6327 92.3283 41.8596C92.3926 42.3472 92.457 42.8348 92.4938 43.3255C92.5245 43.718 92.5981 44.1136 92.4356 44.4785C92.3804 44.6011 92.2209 44.5643 92.1596 44.4785C91.9235 44.1626 91.9296 43.7088 91.9081 43.3255C91.8805 42.8317 91.9143 42.3503 91.9787 41.8596H91.9756Z" fill="#E68467"/>
<path d="M90.0753 41.4058C90.1366 41.2924 90.3451 41.3077 90.3697 41.4426C90.4739 42.0621 90.3605 42.6938 90.3237 43.3163C90.2807 44.0308 90.3421 44.7515 90.2807 45.4629C90.2593 45.699 89.9097 45.7787 89.8453 45.5212C89.5478 44.3405 89.4926 42.5067 90.0753 41.4028V41.4058Z" fill="#E68467"/>
<path d="M87.4986 42.1201C87.5507 41.9515 87.8512 41.9147 87.8788 42.1201C87.931 42.485 87.934 42.85 87.9616 43.218C87.9892 43.5706 88.1088 43.9662 87.9923 44.3096C87.9463 44.4415 87.7592 44.5243 87.6519 44.3986C87.4158 44.1164 87.4005 43.7393 87.3821 43.3774C87.3606 42.9573 87.3698 42.5249 87.4955 42.1201H87.4986Z" fill="#E68467"/>
<path d="M139.87 44.6351C139.87 44.6351 140.643 46.9229 141.738 48.812C142.658 48.4899 143.378 47.6037 143.887 46.6254C144.952 44.5799 145.231 42.4209 144.918 40.1607C144.896 40.0411 144.718 40.0595 144.706 40.173C144.617 40.817 144.488 41.5806 144.295 42.3688C144.188 42.3473 144.081 42.3258 143.97 42.332H143.949C143.296 42.0498 142.501 42.243 141.738 42.654H141.732L139.867 44.6351H139.87Z" fill="#BF8782"/>
<path d="M150.803 32.2915C150.999 34.7847 147.908 41.7523 145.605 44.0953C144.532 45.1931 142.376 46.4566 140.876 46.8062C137.475 47.6036 135.495 46.2788 134.89 44.2946C133.964 41.28 133.259 36.729 133.694 33.0459C133.701 32.9876 133.707 32.9201 133.713 32.8619C133.725 32.7637 133.74 32.6656 133.747 32.5583C133.765 32.4203 133.786 32.2823 133.805 32.1504C133.832 32.0185 133.851 31.8744 133.869 31.7364C133.882 31.6505 133.903 31.5647 133.921 31.4788C133.955 31.2825 133.995 31.0832 134.032 30.8992C134.044 30.8532 134.05 30.8072 134.065 30.7612C134.571 28.3262 135.399 26.2286 136.368 24.9927C137.282 23.8427 138.73 23.7629 140.131 23.3213C141.474 22.8951 142.928 23.0055 144.289 23.3673C145.887 23.7691 147.42 24.5327 148.527 25.7287C149.969 27.3081 150.508 29.4732 150.738 31.6107C150.757 31.8345 150.79 32.0707 150.803 32.2945V32.2915Z" fill="#DB9993"/>
<path d="M134.69 33.2543C134.739 33.2421 134.788 33.2421 134.84 33.2543C134.984 33.285 135.098 33.4168 135.159 33.5671C135.309 33.9351 135.312 34.5331 135.14 34.898C135.018 35.1556 134.723 35.3426 134.49 35.22C134.297 35.1188 134.22 34.8612 134.196 34.6251C134.174 34.4043 134.181 34.1773 134.217 33.9566C134.248 33.7787 134.3 33.5978 134.404 33.4567C134.478 33.3586 134.579 33.285 134.69 33.2604V33.2543Z" fill="#3F1F14"/>
<path d="M140.839 33.6438C140.888 33.6346 140.937 33.6316 140.986 33.6438C141.13 33.6776 141.244 33.8125 141.305 33.9628C141.455 34.3369 141.461 34.9348 141.29 35.2936C141.167 35.5482 140.876 35.7291 140.643 35.6034C140.449 35.4991 140.373 35.2384 140.348 34.9992C140.327 34.7754 140.333 34.5485 140.37 34.3307C140.4 34.1529 140.449 33.972 140.554 33.834C140.627 33.7389 140.729 33.6653 140.836 33.6438H140.839Z" fill="#3F1F14"/>
<path d="M136.188 36.3982C136.516 35.607 136.884 34.8158 137.328 34.0828C137.42 33.9325 137.715 33.9785 137.69 34.1809C137.552 35.2114 137.022 36.1007 136.672 37.0698C136.592 37.2875 136.442 37.5973 136.436 37.8242C136.421 38.3455 136.697 38.3302 137.187 38.4191C137.678 38.5081 138.055 38.4222 138.491 38.6675C138.613 38.735 138.607 38.9129 138.491 38.9834C137.85 39.3668 135.912 39.241 135.685 38.321C135.541 37.7383 135.979 36.9134 136.194 36.3951L136.188 36.3982Z" fill="#BF8782"/>
<path d="M143.774 32.4725C143.704 32.3867 143.59 32.3161 143.477 32.2487C142.836 31.8746 142.045 31.5648 141.174 31.5066C140.622 31.4698 140.042 31.5526 139.595 31.7458C139.178 31.9267 138.659 32.3529 139.353 32.5768C139.586 32.6504 139.855 32.6565 140.116 32.6627C141.079 32.6841 142.039 32.7547 142.989 32.8712C143.265 32.9049 143.609 32.9295 143.771 32.7945C143.87 32.7117 143.863 32.5921 143.793 32.4971C143.787 32.4879 143.781 32.4817 143.774 32.4725Z" fill="#1A2154"/>
<path d="M135.665 32.5118C135.429 32.5854 135.159 32.5793 134.902 32.5762C134.512 32.5732 134.12 32.5517 133.73 32.5701C133.743 32.5057 133.737 32.4781 133.743 32.4107C133.761 32.3217 133.755 32.2481 133.776 32.1653C133.804 32.0795 133.804 32.0028 133.822 31.9108C133.835 31.8556 133.829 31.7851 133.85 31.7299C133.884 31.6011 133.896 31.4907 133.936 31.3711C134.43 31.3803 135.058 31.4386 135.445 31.6318C135.853 31.8372 136.359 32.3003 135.662 32.5149L135.665 32.5118Z" fill="#1A2154"/>
<path d="M206.899 49.5721C206.525 48.8913 205.875 48.4527 205.268 47.9989C204.51 47.4346 204.004 46.8335 203.697 45.9288C203.461 45.2388 203.247 44.5672 202.827 43.96C202.44 43.4019 201.946 42.9173 201.388 42.534C200.508 41.9298 199.478 41.5649 198.42 41.5066C197.301 40.927 196 40.6633 194.768 40.5038C193.722 40.3689 192.667 40.2983 191.624 40.1205C190.542 39.9365 189.496 39.6114 188.42 39.3998C186.749 39.0717 185.007 39.0257 183.36 39.4489C179.53 40.4333 179.475 42.0433 176.862 43.6411C176.362 43.9477 175.516 44.5396 174.985 44.7972C174.139 45.2143 173.056 45.9779 172.82 46.9593C172.6 47.8731 173.523 48.3699 174.289 48.6153C174.001 48.7502 173.805 49.0293 173.731 49.3574C173.599 49.9401 173.937 50.4614 174.409 50.7804C175.547 51.5471 177.147 51.3876 178.316 50.765C178.589 51.7249 179.091 51.6943 179.922 51.3845C180.57 51.1423 181.158 50.7282 181.744 50.3756C181.986 50.2314 182.229 50.0842 182.471 49.937C182.455 50.4277 182.692 50.9429 183.063 51.2864C184.004 52.1665 184.574 51.7188 185.197 52.9455C185.458 53.4607 185.442 54.0372 185.881 54.4604C186.249 54.8131 186.764 54.9818 187.261 55.0584C187.969 55.1688 188.745 55.0952 189.441 55.2026C189.806 55.5675 189.975 56.1502 190.054 56.6746C190.097 56.9567 190.134 57.2481 190.128 57.5364C190.128 57.6253 190.122 57.7142 190.11 57.8032C190.051 58.2386 189.849 58.6158 189.662 59.0053C189.239 59.8609 188.904 61.0385 189.981 61.5629C190.597 61.8635 191.327 61.7684 191.94 62.069C192.6 62.3879 192.725 63.2282 193.305 63.6575C193.94 64.1267 194.636 64.5285 195.298 64.9578C195.488 65.0805 195.697 65.2706 195.936 65.2645C196.163 65.2553 196.329 65.0498 196.568 65.1081C196.611 65.1173 196.666 65.0774 196.666 65.0345C196.709 63.6238 197.181 62.3204 197.8 61.0784C197.804 61.0692 197.81 61.06 197.816 61.0539C197.874 60.9465 197.929 60.8331 197.981 60.7227C197.991 60.7043 198 60.6859 198.009 60.6705C198.04 60.6123 198.067 60.554 198.101 60.4957C198.196 60.3332 198.303 60.1829 198.466 60.0664C198.693 59.8977 198.972 59.8211 199.248 59.7689C200.192 59.5972 201.21 59.7444 201.956 59.0114C202.689 58.2908 202.86 57.1714 202.808 56.1839C204.289 56.1042 205.537 54.8407 206.347 53.703C207.184 52.5223 207.644 50.9122 206.905 49.5629L206.899 49.5721Z" fill="#FEEFD6"/>
<path d="M196.763 64.7003C196.806 63.2835 197.186 62.3297 197.809 61.0816C197.812 61.0724 197.818 61.0632 197.824 61.057C197.883 60.9466 197.938 60.8362 197.993 60.7258C198.002 60.7074 198.011 60.689 198.021 60.6737C197.196 60.4314 196.374 60.1892 195.58 59.8488C193.761 59.0637 191.906 57.5027 189.965 57.0703C189.965 57.1592 189.949 57.8094 189.937 57.8983C189.879 58.3369 189.818 58.6067 189.627 58.9962C189.201 59.858 188.867 61.0417 189.949 61.5692C190.569 61.8697 191.302 61.7747 191.921 62.0783C192.584 62.4003 192.709 63.2436 193.292 63.6729C193.93 64.1452 194.629 64.547 195.294 64.9824C195.485 65.1051 195.693 65.2983 195.935 65.2922C196.162 65.283 196.337 65.2186 196.57 65.1358C196.711 65.0867 196.763 64.7463 196.763 64.7034V64.7003Z" fill="#BF8782"/>
<path d="M145.674 41.9391C146.118 40.2248 146.443 39.5685 146.278 39.4857C145.778 39.2435 142.573 44.4599 140.2 44.2821C138.875 44.5857 138.811 42.8376 138.28 42.1507C137.713 42.3286 137.826 42.0924 137.428 42.1507C137.618 44.5918 137.345 44.5765 135.861 42.9051C135.376 42.3194 135.483 41.8716 134.907 41.3687C134.475 40.6204 134.481 40.7768 133.947 40.0531C133.763 41.5128 134.22 41.6784 134.41 43.1811C134.588 44.6041 135.115 44.6685 135.37 45.6682C136.1 46.4778 136.925 47.2169 137.998 47.266C140.556 47.3856 142.767 46.4441 143.932 45.4536C144.337 45.1101 144.83 44.8126 145.177 44.0674C145.437 43.5031 145.591 42.5371 145.674 41.936V41.9391Z" fill="#1A2154"/>
<path d="M148.849 30.905C148.956 30.1659 148.843 29.4268 148.591 28.7307C148.349 28.056 147.993 27.4273 147.604 26.8232C147.196 26.1884 146.782 25.6149 146.077 25.2929C145.288 24.931 144.405 24.8636 143.556 24.7838C142.633 24.6949 141.713 24.5998 140.787 24.5354C140.33 24.5017 139.873 24.4986 139.428 24.6274C139.051 24.7348 138.698 24.9157 138.33 25.0568C137.601 25.3389 136.809 25.4279 136.092 25.7499C135.301 26.1056 134.896 26.7527 134.531 27.5101C134.108 28.3903 133.82 29.3256 133.78 30.3039C133.78 30.3131 133.78 30.3223 133.786 30.3315C133.786 30.3377 133.783 30.3438 133.78 30.3499C133.77 30.3622 133.77 30.3775 133.774 30.3898C133.758 30.4082 133.752 30.4327 133.764 30.4603C133.813 30.5554 133.859 30.6075 133.954 30.6597C133.979 30.675 134.01 30.675 134.031 30.6535C134.602 30.1199 134.687 29.2459 134.954 28.5498C135.111 28.1419 135.273 27.5224 135.702 27.3415C136.021 27.2065 136.389 27.2924 136.727 27.2893C137.015 27.2893 137.257 27.2127 137.524 27.1023C137.686 27.0348 137.849 26.9581 138.027 26.9336C138.303 26.8968 138.554 27.0348 138.812 27.1115C139.6 27.3537 140.318 27.2617 141.112 27.1421C141.624 27.0655 142.069 27.2035 142.553 27.3537C142.995 27.4887 143.436 27.6267 143.878 27.7616C144.319 27.8966 144.761 28.0346 145.203 28.1695C145.672 28.3136 146.196 28.4608 146.362 28.9822C146.635 29.8317 146.69 30.7333 146.494 31.5981C146.31 32.4016 146.095 33.2449 146.055 34.0699C146.034 34.5544 146.408 34.8212 146.751 34.4195C146.904 34.2416 147.049 34.2109 147.285 34.1987C147.389 34.1925 147.487 34.1833 147.579 34.1281C147.824 33.9809 147.969 33.6282 148.085 33.3768C148.444 32.6193 148.723 31.7392 148.846 30.9081L148.849 30.905Z" fill="#1A2154"/>
<path d="M134.711 26.7106C134.711 26.7106 137.164 25.4839 140.255 25.858C143.346 26.2322 145.425 25.9654 146.333 26.7106C147.238 27.4558 147.667 29.7497 147.612 30.869C147.557 31.9884 148.421 33.1139 148.421 33.1139C148.421 33.1139 148.198 36.199 148.572 36.6774C148.946 37.1558 147.79 37.6557 149.222 37.9133C150.651 38.1709 154.65 30.7065 151.985 28.3083C149.32 25.9102 147.615 22.3374 147.615 22.3374C147.615 22.3374 143.564 21.4849 140.899 21.3776C138.234 21.2702 135.729 22.7637 135.251 23.6163C134.772 24.4688 134.717 26.7075 134.717 26.7075L134.711 26.7106Z" fill="#1A2154"/>
<path d="M146.976 39.4274C148.325 40.697 149.282 38.4062 149.595 37.4371C149.999 36.1797 150.699 33.1621 148.794 32.6377C147.706 32.3372 146.973 33.3062 146.822 34.2815C146.215 35.6645 145.82 38.3479 146.973 39.4305L146.976 39.4274Z" fill="#DB9993"/>
<path d="M139.553 40.5873C139.396 40.5474 139.218 40.5413 139.034 40.5597C138.955 40.5597 138.872 40.5658 138.786 40.5781H138.78C138.538 40.6026 138.289 40.6517 138.09 40.6824C137.814 40.7222 136.842 40.8664 136.284 40.94C136.271 40.9461 136.265 40.9461 136.256 40.9461C136.139 40.9584 136.047 40.9737 135.98 40.9798C135.817 40.9982 135.778 41.17 135.836 41.2804C136.649 42.6327 138.541 42.4763 139.546 41.4061C139.789 41.1485 140.065 40.7222 139.553 40.5904V40.5873Z" fill="white"/>
</svg>
